/* XPM */
static char * gdisp_urlLogo[] = {
"64 64 16 1",
" 	c None",
".	c #9C9C00",
"+	c #9C9C10",
"@	c #ADAD29",
"#	c #B5B542",
"$	c #BDBD52",
"%	c #BDBD63",
"&	c #C6C673",
"*	c #CECE84",
"=	c #D6D68C",
"-	c #DEDE9C",
";	c #DEDEAD",
">	c #E7E7BD",
",	c #EFEFCE",
"'	c #F7F7DE",
")	c #FFFFEF",
"                                                                ",
"                                                                ",
"                                                                ",
"                                                                ",
"                                                                ",
"                                                                ",
"                                                                ",
"                                                                ",
"                                                                ",
"                                                                ",
"                              ,=##....##-'                      ",
"                           -................>                   ",
"                          +..................>                  ",
"                       ).......................,                ",
"                       +.......................+,               ",
"                     %.........+*; '',*&.........,              ",
"                     ........#          ';.......+'             ",
"                   %......@,               '+......             ",
"                   .......                  '+.....>            ",
"                 )@.....>                     %.....*           ",
"                 &.....+                       .....+           ",
"                 ......      ,++...+++'  #....@*+....           ",
"                >.....@     %+........+, +....& +...+,          ",
"               '.....&    >+............%....+  '....#          ",
"               &.....'    ++.................#   +...+          ",
"               ......   '@...................,   .....          ",
"               .....+   #+.....+;;#+.........'   +....          ",
"               .....,   +.....'     ++......+    .....          ",
"              >....+   *.....*      ;........'   +....          ",
"              &....*   +....'        +......%    +...+          ",
"              #....>   +...+         #......;    +...+          ",
"              .....    ....@         @......'    +...*          ",
"              .....   ;....&        ,+.....+'   *....           ",
"              ....+   ;....%        &+......'   +....           ",
"              .....   ;....#        +.....+%'  %....+           ",
"              ....+   ;...+.       >.......&   +...+&           ",
"              #....;   .....*     ++......+,  *....%'           ",
"              $....&   +....+%  ;@........+, >+....'            ",
"              >....+,  +..................+,&+....+             ",
"               .....*  @..................+++....+'             ",
"               ....+.   +........................'              ",
"               @....+'  %............++.........*               ",
"                +.....%   +.........,';+......+'                ",
"                ;......   >%......+;  '%.....;'                 ",
"                 +.....+'  '',,,,''    '',,,'                   ",
"                 >......+*   ''''       ' '                     ",
"                   +.....+.+>             %........             ",
"                   *+........+&;       ,%@........#  *          ",
"                     ++............++............' %+.          ",
"                      %+.......................+* ,+..          ",
"                       '%+...................%, '++..+          ",
"                        '>++...............+;' %++...,          ",
"                           ''';%+##++&;;''''#++..+&  #          ",
"                                                                ",
"                                                                ",
"                                                                ",
"                                                                ",
"                                                                ",
"                                                                ",
"                                                                ",
"                                                                ",
"                                                                ",
"                                                                ",
"                                                                "};
