/* XPM */
static char * gdisp_magentaBall[] = {
"12 12 15 1",
" 	c None",
".	c #5A0021",
"+	c #731031",
"@	c #8C314A",
"#	c #9C4A63",
"$	c #BD52D6",
"%	c #BDBDBD",
"&	c #C61084",
"*	c #C67B94",
"=	c #C6C6C6",
"-	c #D62194",
";	c #DE73D6",
">	c #EF84EF",
",	c #FF00FF",
"'	c #FFA5EF",
"            ",
"   *$--$*   ",
"  ;-,,,,&;  ",
" ;-,,,,-&&; ",
" $,,>',-&&@ ",
" -,,,,-&&@+ ",
" -----&&@++ ",
" $&&&&&@+.@ ",
" ;&&&@++..# ",
"  ;+++...#  ",
"   ;@++@#   ",
"            "};
