/* XPM */
static char *gdisp_infoLogo[] = {
/* width height ncolors chars_per_pixel */
"14 14 17 1",
/* colors */
"  c None",
". c #0380A7",
"X c #089CC6",
"o c #1D5D6D",
"O c #0098CA",
"+ c #004F6A",
"@ c #239CBA",
"# c #009CD6",
"$ c #E2F3FB",
"% c #58C2D9",
"& c #86C7DB",
"* c #44A2B1",
"= c #1BA9D4",
"- c #089CCE",
"; c None",
": c None",
"> c None",
/* pixels */
"  ;;&&%%%%;;  ",
" ;&&%=##==%*; ",
";&&=###&%#-**;",
";&=####$$##-*;",
"&%##########@*",
"&=####$&####X@",
"%####=$$####O@",
"%####$$=####O.",
"%=###$$#####Xo",
"%=###$$=$###.o",
";%-##=$$=##Oo:",
";**X######O++ ",
" ;*@@XOOO.++  ",
"  :;*@..oo    "
};
