/* XPM */
static char * gdisp_gdispAnimLogo7[] = {
"70 53 16 1",
" 	c None",
".	c #000000",
"+	c #527B52",
"@	c #8CA58C",
"#	c #94AD94",
"$	c #94BD94",
"%	c #A5BDA5",
"&	c #B5C6B5",
"*	c #B5D6B5",
"=	c #BDD6BD",
"-	c #CECECE",
";	c #DEEBDE",
">	c #E7F7E7",
",	c #EFEFEF",
"'	c #F7F7F7",
")	c #F7FFF7",
"                                                                      ",
"                                                                      ",
"                                           ';;;;;'                    ",
"                                        ;=%%*****%&*-;                ",
"                                     );&*============&&;              ",
"                                    '%*================*&;            ",
"                                   @%*===================&='          ",
"                                   @*======================&'         ",
"..                      =======   @%========================%'        ",
"..                   ===========  @%=========================&'       ",
"..                 ==============@$%===========================       ",
"..=====           ========$$$@@@@@$%==========================*;      ",
"..=======================$$$#%$%$@@$%==========================&      ",
"..=====================$$$#@#=*%$$$$$============*$%==========*%;     ",
"..=================$$$$$$---&&%*=*%%%============$$%==========%%;     ",
"..$$===========$$$$$&&&&%&>>;--&#&&====*$$*=====*$$$==========$%;     ",
"..$$$$=====$$$$$$$$&&=**&&%>>>;-&-&%%*===$%$$%*=*$$@%%&======*$%;     ",
"..$$$$$$$$$$$$$$$$&&======&%>>;--%-;-&%*====#$$=*@%---%======&$%;     ",
"..$$$$$$$$$$$$$$$$&========&=>;#&;>>>;-&%*==%@@&%&%#%%%=====%$$%;     ",
"..=$$$$$$$$$$$$$$;&*========&-##&;>>>>>--&*=&@%-&#@$=&&====%$$$&;     ",
"..  =====;%%==%=$;&*=========&&##>>>>>>>;-&%&-&#@$$$=%&===&$$$*%'     ",
"..     )%%=====%%%;&**==**====&&#>>>>>>>>;-&%%@$$$$$=&#==%$$$$&;      ",
"      ;*========%%%&$$%=*====*&#&>>>>>>>>;%%%%%%%%%%=%%==$$$$%&       ",
"     ;%=====$$$$$$$&$$$%=**==-;&&>>>>>>>>%%=======%%%====$$$%&'       ",
"    )&====$$$$$$%$$-%$$$$$$%=*=*&&&>>>>>>%===========%%=$$%%='        ",
"    -====$$$$$$$$$$;%$$$$$$$%*$%%&&>>>>,%=============%%$$$%)         ",
"   )&===%$$$$$$$$$$$&$$$$$$$$$$$$%&*>>>%=========$=====%$$$%          ",
"   ;*==%$$$$$$$$$$$$$&$$$$$$$$$$$%%&-%%=========$$$$===%$$$           ",
"   -==$$$$$$$$$$$$$$$%&$$$$$$$$$$&#%%%*========$$$$$$==%%$            ",
"  &===$$$$$$$$$$$$$$$$$=&%%$$$%%&%%%%$$$======$$$*+++++*%$            ",
" )$==$$$$$$$$++@@@$$$$$$$@&&%%&................$*+++++++%+            ",
"  ===$$$$$$$+++++@#$$$$$$$$&*$#................*++++++++%             ",
" &===$$$$$@+++++++@@$$$$$$$$$$$................+++++++++%             ",
" ====$$$$$$++++++++@@$$$$$$$$$$................+$+++++++%             ",
" ===$$$$$$++++++++++@@$$$$$$$$$................$$+++++++%             ",
"&===$$$$$$++  ++++++++#@$$$$$$$.....$$$$$$&+++$$$+++++++%             ",
".===$$$$$++     +++++@@$$$$$$$$$....%%%%%%%+$$$$$+++++++              ",
"..==$$$$$++       +++++$$$$$$$$$$$..======$$$$$==+++++++              ",
"..$$$$$$$+          ++++@@$$$$$$@@@.*====%%$$====+++++++              ",
"..$$$$$$++             ++++@@@@@+++@$%===%=======+++++++              ",
"..$$$$$$+                        @++@$$=========+++++++%              ",
"..$$$$$$+                         @++@$%========+++++++%              ",
"..$$$$$$+                          @++@$*=======+++++++%              ",
"..$$$$$++                           *++@$=======+++++++%              ",
"..$$$$%+                             =+@$&=====++++++++               ",
".$$$$$+                               '@@$*===+++++++++               ",
"$$$$$&                                 '#$%===++++++++                ",
"$$%&                                    ;@$==+++++++++                ",
"&&                                       &@$+++++++++$                ",
"                                         )%@++++++++$$                ",
"                                          )&%%&&&@+$                  ",
"                                                                      ",
"                                                                      "};
