/* XPM */
static char *gdisp_okButton[] = {
/* width height ncolors chars_per_pixel */
"32 32 17 1",
/* colors */
"  c None",
". c #003900",
"X c #007700",
"o c #1E421E",
"O c #01B801",
"+ c #027302",
"@ c #005A00",
"# c #03F403",
"$ c #03D603",
"% c #227322",
"& c #B3F0B3",
"* c #33BF33",
"= c #77D977",
"- c #003100",
"; c #039C03",
": c #33FC33",
"> c None",
/* pixels */
"                                ",
"                                ",
"           :########            ",
"        =::::$$$$###$$*         ",
"       :==O;;OOO$$###$$$        ",
"      ==*X;O::#########OO       ",
"     ==++*==:::####$O##:OO      ",
"    =&@@=&&==::####$$OO#:O;     ",
"   =&%@&&&&&==::####$OO;::;O    ",
"   &=@=&&oooo=::#@..-;O;O:*;    ",
"  =&@@&&&=%%%*::$@@@+OO;;:=;;   ",
"  ==@=&& &==**::@+;;$OO;;;=*;   ",
" ==%@&&&&&&==***+;O$$OO;;X==X   ",
" ==+%&&&&&&===*;;O$#$OO;;+==X*  ",
" :=X*&&&&&&&=::$O$##$OO;;+*=XX  ",
" :=;:==&&&==*::####$$OO;X+%&X+  ",
" ::;:=======%*###$$$OO;;X@%&X+  ",
" ::;$::::::@%O###$O$OO;;+@*&X+  ",
" ::OO:::::%@;$###$OXO;;X+@=&+*  ",
" =#$O#####@XO$##$OO;;;;X@@&=+   ",
"  ##O####@+;$###$OO;@;X+@%&%@   ",
"  ##$$##X@;O$#$$O;;;+@+@.=&@X   ",
"   ##$#####$$$$OOO;;;+@@%&*@    ",
"   ####$$$$$$OOOO;;;X@@.&&+%    ",
"    ####$OOOOOO;;;X++@@&&+@     ",
"     $$###OOO;;;;X+@@*&&+@      ",
"      $$###$;;;XX+%==&=+@       ",
"       $OO#:::::===&=X++        ",
"        *OOOO:===*;XX+          ",
"           O;;;;;XXX            ",
"                                ",
"                                "
};
