/* XPM */
static char *gdisp_errorLogo[] = {
/* width height ncolors chars_per_pixel */
"14 14 17 1",
/* colors */
"  c None",
". c #B34842",
"X c #EB9C98",
"o c #7C2E2B",
"O c #EF7B7B",
"+ c #D87A71",
"@ c #C5625B",
"# c #EF7B73",
"$ c #E7948C",
"% c #E14841",
"& c #EF5A52",
"* c #F5A4A0",
"= c None",
"- c None",
"; c #F7E718",
": c #EF4239",
"> c None",
/* pixels */
"  ==*XX$$$=-  ",
" =**O&::&+++- ",
"=*X&::::::%++-",
"=*&::::::::%+=",
"X#::::::::::@@",
"X&::::::::::%@",
"$::;;;;;;;;::@",
"$::;;;;;;;;::.",
"$&::::::::::%.",
"++::::::::::..",
"=+%::::::::%o ",
"-+@%::::::%oo ",
" -+@@%::%.oo  ",
"  --@@...o    "
};
