/* XPM */
static char * gdisp_xLogo[] = {
"12 12 2 1",
".	c None",
"+	c #BDFFFF",
".+++....+++.",
".++++...+++.",
"..+++..+++..",
"..++++++++..",
"...++++++...",
"....++++....",
"....++++....",
"..+++++++...",
".++++..+++..",
".++++..+++..",
"++++....+++.",
"++......+++."};
