/* XPM */
static char *gdisp_collapsedNode[] = {
"16 13 16 1",
". c #020200",
"+ c #080800",
"@ c #787732",
"# c #949840",
"$ c #CCCC74",
"% c #D2C889",
"& c #E8DD81",
"* c #F1DF92",
"= c #FFFF8C",
"- c #FFFB98",
"; c #FFF7A5",
"> c #FFFFA0",
", c #FFF7AD",
"' c #FFFDBE",
") c #FFFFE6",
"! c None",
"!!!#####+!!!!!!!",
"!!#,,,>>#+!!!!!!",
"!#$$$$$$$######!",
"!#>>>,,>>>>>=>$+",
"!#>>>>->>>-->&%.",
"!#>=>>>;>-*;*;$+",
"!#>>>---->;*,*%+",
"!#>>-->-&-*;*-%+",
"!#>-->>,,&,*,&$+",
"!#-->-&,&,*;*&$+",
"!#-&=&>*,&-**&%+",
"!#$$$$%%%%$%%%%+",
"!!++.+.+.++++..."
};
