/* XPM */
static char * gdisp_2dLogo[] = {
"147 107 8 1",
".	c None",
"+	c #FFFFFF",
"@	c #000000",
"#	c #C8C8C8",
"$	c #00CD00",
"%	c #0000FF",
"&	c #FFE500",
"*	c #969696",
"...................................................................................................................................................",
".+++++++++++++++++@@@@@@@@@@@@@@@@@@@@@@@@@@@@@@@@@@@@@@@@@@@@@@@@@@@@@@@@@@@@@@@@@@@@@@@@@@@@@@@@@@@@@@@@@@@@@@@@@@@@@@@@@@@@@@@@@@@@@@@@@@@@@@@@.",
".+................@#@@@@@@@@@@@@@@@@@@@@@@@@@@@@@@@@@@@@@@@@@@@@@@@@@@@@@@@@@@@@@@@@@@@@@@@@@@@@@@@@@@@@@@@@@@@@@@@@@@@@@@@@@@@@@@@@@@@@@@@@@@@@@@.",
".+...............@@#@@@@@@@@@@@@@@@@@@@@@@@@@@@@@@@@@@@@@@@@@@@@@@@@@@@@@@@@@@@@@@@@@@@@@@@@@@@@@@@@@@@@@@@@@@@@@@@@@@@@@@@@@@@@@@@@@@@@@@@@@@@@@@.",
".+...............@@#@@@@@@@@@@@@@@@@@$$$@@@@@@@@@@@@@@@@@@@@@@@@@@@@@@@@@@@@@@@@@@@@%%%%@@@@@@@@&&&@@@@@@@@@@@@@@@@@@$$$@@@@@@@@@@@@@@@@@@@@@@@@@@.",
".+..@@@@@@@@@@@@@@@&&@@@@@@@@@@@@@@$$$@$$$@@@@@@@@@@@@@@@@@@@@@@@@@@@@@@@@@@@@@@@@@%%@@%%%@@@@&&&@&&&@@@@@@@@@@@@@@$$$@$$$@@@@@@@@@@@@@@@@@@@@@@@@.",
".+...............@@#&&@@@@@@@@@@@@$$@@@@@$$@@@@@@@@@@@@@@@@@@@@@@@@@@@@@@@@@@@@@@%%@@@@@@%%@@&&@@@@@&&@@@@@@@@@@@@$$@@@@@$$@@@@@@@@@@@@@@@@@@@@@@@.",
".+...............@@#@&&@@@@@@@@@@$$@@@@@@@$$@@@@@@@@@@@@@@@@@@@@@@@@@@@@@@@@@@@@@%@@@@@@@@%@&&@@@@@@@&&@@@@@@@@@@$$@@@@@@@$$@@@@@@@@@@@@@@@@@@@@@@.",
".+...............@@#@@&&@@@@@@@@@$@@@@@@@@@$$@@@@@@@@@@@@@@@@@@@@@@@@@@@@@@@@@@@%@@@@@@@@@@%&@@@@@@@@@&&@@@@@@@@$$@@@@@@@@@$$@@@@@@@@@@@@@@@@@@@@@.",
".+...............@@#@@@&&@@@@@@@$@@@@@@@@@@@$$@@@@@@@@@@@@@@@@@@@@@@@@@@@@@@@@@%%@@@@@@@@@@%%@@@@@@@@@@&@@@@@@@@$@@@@@@@@@@@$@@@@@@@@@@@@@@@@@@@@@.",
".+...............@@#@@@@&&@@@@@$$@@@@@@@@@@@@$@@@@@@@@@@@@@@@@@@@@@@@@@@@@@@@@@%@@@@@@@@@@&@%@@@@@@@@@@@&@@@@@@$@@@@@@@@@@@@@$@@@@@@@@@@@@@@@@@@@@.",
".+...............@@#@@@@&&@@@@@$@@@@@@@@@@@@@$$@@@@@@@@@@@@@@@@@@@@@@@@@@@@@@@%@@@@@@@@@@&&@@%@@@@@@@@@@&&@@@@$$@@@@@@@@@@@@@$$@@@@@@@@@@@@@@@@@@@.",
".+...............@@#@@@@@&@@@@$$@@@@@@@@@@@@@@$@@@@@@@@@@@@@@@@@@@@@@@@@@@@@@%%@@@@@@@@@@&@@@%%@@@@@@@@@@&@@@@$@@@@@@@@@@@@@@@$@@@@@@@@@@@@@@@@@@@.",
".+..@@@@...@@@@@@@@#@@@@@&&@@@$@@@@@@@@@@@@@@@@$@@@@@@@@@@@@@@@@@@@@@@@@@@@@@%@@@@@@@@@@&&@@@@%@@@@@@@@@@&&@@$$@@@@@@@@@@@@@@@$$@@@@@@@@@@@@@@@@@@.",
".+...............@@#@@@@@@&@@$$@@@@@@@@@@@@@@@@$@@@@@@@@@@@@@@@@@@@@@@@@@@@@%%@@@@@@@@@@&@@@@@%%@@@@@@@@@@&@@$@@@@@@@@@@@@@@@@@$@@@@@@@@@@@@@@@@@@.",
".+...............@@#@@@@@@&&@$@@@@@@@@@@@@@@@@@@$@@@@@@@@@@@@@@@@@@@@@@@@@@@%@@@@@@@@@@&&@@@@@@%@@@@@@@@@@&&$$@@@@@@@@@@@@@@@@@$$@@@@@@@@@@@@@@@@@.",
".+...............@@#@@@@@@@&$$@@@@@@@@@@@@@@@@@@$@@@@@@@@@@@@@@@@@@@@@@@@@@@%@@@@@@@@@@&@@@@@@@%%@@@@@@@@@@&$@@@@@@@@@@@@@@@@@@@$@@@@@@@@@@@@@@@@@.",
".+...............@@#@@@@@@@&&@@@@@@@@@@@@@@@@@@@$$@@@@@@@@@@@@@@@@@@@@@@@@@%@@@@@@@@@@@&@@@@@@@@%@@@@@@@@@@&$@@@@@@@@@@@@@@@@@@@$@@@@@@@@@@@@@@@@@.",
".+...............@@#@@@@@@@@&@@@@@@@@@@@@@@@@@@@@$@@@@@@@@@@@@@@@@@@@@@@@@@%@@@@@@@@@@&@@@@@@@@@%@@@@@@@@@@&&@@@@@@@@@@@@@@@@@@@@$@@@@@@@@@@@@@@@@.",
".+.....@.........@@#@@@@@@@$&&@@@@@@@@@@@@@@@@@@@$$@@@@@@@@@@@@@@@@@@@@@@@%%@@@@@@@@@@&@@@@@@@@@@%@@@@@@@@@$&@@@@@@@@@@@@@@@@@@@@$@@@@@@@@@@@@@@@@.",
".+...@@@.........@@#@@@@@@@$@&@@@@@@@@@@@@@@@@@@@@$@@@@@@@@@@@@@@@@@@@@@@@%@@@@@@@@@@&&@@@@@@@@@@%@@@@@@@@$$&&@@@@@@@@@@@@@@@@@@@$$@@@@@@@@@@@@@@@.",
".+.....@...@@@@@@@@#@@@@@@$@@&@@@@@@@@@@@@@@@@@@@@$@@@@@@@@@@@@@@@@@@@@@@@%@@@@@@@@@@&@@@@@@@@@@@%%@@@@@@@$@@&@@@@@@@@@@@@@@@@@@@@$@@@@@@@@@@@@@@@.",
".+.....@.........@@#@@@@@@$@@&&@@@@@@@@@@@@@@@@@@@$$@@@@@@@@@@@@@@@@@@@@@%@@@@@@@@@@@&@@@@@@@@@@@@%@@@@@@@$@@&@@@@@@@@@@@@@@@@@@@@$@@@@@@@@@@@@@@@.",
".+.....@.........@@%@@@@@$$@@@&@@@@@@@@@@@@@@@@@@@@$@@@@@@@@@@@@@@@@@@@@@%@@@@@@@@@@&@@@@@@@@@@@@@%@@@@@@$$@@&&@@@@@@@@@@@@@@@@@@@@$@@@@@@@@@@@@@@.",
".+.....@.........@@%@@@@@$@@@@&&@@@@@@@@@@@@@@@@@@@$@@@@@@@@@@@@@@@@@@@@%%@@@@@@@@@@&@@@@@@@@@@@@@%%@@@@@$@@@@&@@@@@@@@@@@@@@@@@@@@$@@@@@@@@@@@@@@.",
".+.....@.........@@%%@@@@$@@@@&&@@@@@@@@@@@@@@@@@@@@$@@@@@@@@@@@@@@@@@@@%@@@@@@@@@@&&@@@@@@@@@@@@@@%@@@@@$@@@@&@@@@@@@@@@@@@@@@@@@@$$@@@@@@@@@@@@@.",
".+.....@.........@@%%@@@$$@@@@@&@@@@@@@@@@@@@@@@@@@@$@@@@@@@@@@@@@@@@@@@%@@@@@@@@@@&@@@@@@@@@@@@@@@%@@@@$@@@@@@&@@@@@@@@@@@@@@@@@@@@$@@@@@@@@@@@@@.",
".+.....@.........@@#%@@@$$@@@@@&&@@@@@@@@@@@@@@@@@@@$$@@@@@@@@@@@@@@@@@%%@@@@@@@@@@&@@@@@@@@@@@@@@@%%@@@$@@@@@@&@@@@@@@@@@@@@@@@@@@@$@@@@@@@@@@@@@.",
".+...............@@#%%@@$@@@@@@@&@@@@@@@@@@@@@@@@@@@@$@@@@@@@@@@@@@@@@@%@@@@@@@@@@&&@@@@@@@@@@@@@@@@%@@@$@@@@@@&@@@@@@@@@@@@@@@@@@@@$$@@@@@@@@@@@@.",
".+.........@@@@@@@@#@%@$$@@@@@@@&@@@@@@@@@@@@@@@@@@@@$@@@@@@@@@@@@@@@@@%@@@@@@@@@@&@@@@@@@@@@@@@@@@@%@@$@@@@@@@@&@@@@@@@@@@@@@@@@@@@@$@@@@@@@@@@@@.",
".+...............@@#@%@$$@@@@@@@&@@@@@@@@@@@@@@@@@@@@$$@@@@@@@@@@@@@@@%%@@@@@@@@@@&@@@@@@@@@@@@@@@@@@%@$@@@@@@@@&@@@@@@@@@@@@@@@@@@@@$@@@@@@@@@@@@.",
".+...............@@#@%%$@@@@@@@@@&@@@@@@@@@@@@@@@@@@@@$@@@@@@@@@@@@@@@%@@@@@@@@@@&&@@@@@@@@@@@@@@@@@@%$$@@@@@@@@&&@@@@@@@@@@@@@@@@@@@$$@@@@@@@@@@@.",
".+...............@@#@@%$@@@@@@@@@&@@@@@@@@@@@@@@@@@@@@$@@@@@@@@@@@@@@@%@@@@@@@@@@&@@@@@@@@@@@@@@@@@@@%$@@@@@@@@@@&@@@@@@@@@@@@@@@@@@@@$@@@@@@@@@@@.",
".+...............@@#@@%$@@@@@@@@@&@@@@@@@@@@@@@@@@@@@@$$@@@@@@@@@@@@@%%@@@@@@@@@@&@@@@@@@@@@@@@@@@@@@%%@@@@@@@@@@&@@@@@@@@@@@@@@@@@@@@$@@@@@@@@@@@.",
".+...............@@#@@%%@@@@@@@@@@&@@@@@@@@@@@@@@@@@@@@$@@@@@@@@@@@@@%@@@@@@@@@@&&@@@@@@@@@@@@@@@@@@@$%@@@@@@@@@@&&@@@@@@@@@@@@@@@@@@@$$@@@@@@@@@@.",
".+...............@@#@$%%@@@@@@@@@@&@@@@@@@@@@@@@@@@@@@@$@@@@@@@@@@@@@%@@@@@@@@@@&@@@@@@@@@@@@@@@@@@@@$%@@@@@@@@@@@&@@@@@@@@@@@@@@@@@@@@$@@@@@@@@@@.",
".+...............@@#@$$%@@@@@@@@@@&&@@@@@@@@@@@@@@@@@@@$@@@@@@@@@@@@%%@@@@@@@@@@&@@@@@@@@@@@@@@@@@@@@$%%@@@@@@@@@@&@@@@@@@@@@@@@@@@@@@@$@@@@@@@@@@.",
".+.........@@@@@@@@#@$@%%@@@@@@@@@&&@@@@@@@@@@@@@@@@@@@@$@@@@@@@@@@@%@@@@@@@@@@@&@@@@@@@@@@@@@@@@@@@@$@%@@@@@@@@@@&@@@@@@@@@@@@@@@@@@@@$@@@@@@@@@@.",
".+...............@@#@$@%%@@@@@@@@@&&@@@@@@@@@@@@@@@@@@@@$@@@@@@@@@@@%@@@@@@@@@@&@@@@@@@@@@@@@@@@@@@@$@@%@@@@@@@@@@@&@@@@@@@@@@@@@@@@@@@@$@@@@@@@@@.",
".+...............@@#$$@@%@@@@@@@@@@&@@@@@@@@@@@@@@@@@@@@$@@@@@@@@@@%%@@@@@@@@@@&@@@@@@@@@@@@@@@@@@@@$@@@%@@@@@@@@@@&@@@@@@@@@@@@@@@@@@@@$@@@@@@@@@.",
".+...............@@#$@@@%%@@@@@@@@@&&@@@@@@@@@@@@@@@@@@@@$@@@@@@@@@%@@@@@@@@@@@&@@@@@@@@@@@@@@@@@@@@$@@@%@@@@@@@@@@&@@@@@@@@@@@@@@@@@@@@$@@@@@@@@@.",
".+...............@@#$@@@%%@@@@@@@@@@&@@@@@@@@@@@@@@@@@@@@$@@@@@@@@@%@@@@@@@@@@&@@@@@@@@@@@@@@@@@@@@$@@@@%@@@@@@@@@@@&@@@@@@@@@@@@@@@@@@@@$@@@@@@@@.",
".+...............@@$$@@@@%@@@@@@@@@@&@@@@@@@@@@@@@@@@@@@@$@@@@@@@@%%@@@@@@@@@@&@@@@@@@@@@@@@@@@@@@@$@@@@%%@@@@@@@@@@&@@@@@@@@@@@@@@@@@@@@$@@@@@@@@.",
".+..........@....@@$@@@@@%@@@@@@@@@@&&@@@@@@@@@@@@@@@@@@@$$@@@@@@@%@@@@@@@@@@@&@@@@@@@@@@@@@@@@@@@@$@@@@@%@@@@@@@@@@&@@@@@@@@@@@@@@@@@@@@$@@@@@@@@.",
".+..........@@...@@$@@@@@%%@@@@@@@@@@&@@@@@@@@@@@@@@@@@@@@$@@@@@@@%@@@@@@@@@@&@@@@@@@@@@@@@@@@@@@@$$@@@@@%@@@@@@@@@@&&@@@@@@@@@@@@@@@@@@@@$@@@@@@@.",
".+..........@@@..@@#######%##########&&###################$#######%##########&####################$######%%##########&####################$######@.",
".+..@@@@@@@@@@@@@@@#@@@@@@%@@@@@@@@@@&&@@@@@@@@@@@@@@@@@@@$$@@@@@%@@@@@@@@@@@&@@@@@@@@@@@@@@@@@@@@$@@@@@@@%@@@@@@@@@@&@@@@@@@@@@@@@@@@@@@@$@@@@@@@.",
".+..........@@@..@@#@@@@@@%@@@@@@@@@@@&@@@@@@@@@@@@@@@@@@@@$@@@@@%@@@@@@@@@@&@@@@@@@@@@@@@@@@@@@@$$@@@@@@@%@@@@@@@@@@&&@@@@@@@@@@@@@@@@@@@$$@@@@@@.",
".+..........@@...@@#@@@@@@%%@@@@@@@@@@&@@@@@@@@@@@@@@@@@@@@$@@@@@%@@@@@@@@@@&@@@@@@@@@@@@@@@@@@@@$@@@@@@@@%@@@@@@@@@@@&@@@@@@@@@@@@@@@@@@@@$@@@@@@.",
".+....@@@...@....@@#@@@@@@@%@@@@@@@@@@&&@@@@@@@@@@@@@@@@@@@$@@@@%@@@@@@@@@@@&@@@@@@@@@@@@@@@@@@@@$@@@@@@@@@%@@@@@@@@@@&@@@@@@@@@@@@@@@@@@@@$@@@@@@.",
".+...@...@.......@@#@@@@@@@%@@@@@@@@@@@&@@@@@@@@@@@@@@@@@@@@$@@@%@@@@@@@@@@&&@@@@@@@@@@@@@@@@@@@@$@@@@@@@@@%@@@@@@@@@@&@@@@@@@@@@@@@@@@@@@@$$@@@@@.",
".+...@...@.......@@#@@@@@@@@%@@@@@@@@@@&@@@@@@@@@@@@@@@@@@@@$@@@%@@@@@@@@@@&@@@@@@@@@@@@@@@@@@@@$@@@@@@@@@@%@@@@@@@@@@@&@@@@@@@@@@@@@@@@@@@@$@@@@@.",
".+...@...@.......@@#@@@@@@@@%@@@@@@@@@@&@@@@@@@@@@@@@@@@@@@@$@@%%@@@@@@@@@@&@@@@@@@@@@@@@@@@@@@@$@@@@@@@@@@@%@@@@@@@@@@&@@@@@@@@@@@@@@@@@@@@$@@@@@.",
".+...@...@.......@@#@@@@@@@@%@@@@@@@@@@@&@@@@@@@@@@@@@@@@@@@@$@%@@@@@@@@@@&&@@@@@@@@@@@@@@@@@@@@$@@@@@@@@@@@%@@@@@@@@@@&@@@@@@@@@@@@@@@@@@@@$$@@@@.",
".+...@...@.@@@@@@@@#@@@@@@@@%%@@@@@@@@@@&@@@@@@@@@@@@@@@@@@@@$@%@@@@@@@@@@&@@@@@@@@@@@@@@@@@@@@$@@@@@@@@@@@@%@@@@@@@@@@@&@@@@@@@@@@@@@@@@@@@@$@@@@.",
".+...@...@.......@@#@@@@@@@@@%@@@@@@@@@@&@@@@@@@@@@@@@@@@@@@@$%%@@@@@@@@@@&@@@@@@@@@@@@@@@@@@@@$@@@@@@@@@@@@%%@@@@@@@@@@&@@@@@@@@@@@@@@@@@@@@$@@@@.",
".+...@...@.......@@#@@@@@@@@@%@@@@@@@@@@&&@@@@@@@@@@@@@@@@@@@@%@@@@@@@@@@&&@@@@@@@@@@@@@@@@@@@$$@@@@@@@@@@@@@%@@@@@@@@@@&@@@@@@@@@@@@@@@@@@@@@@@@@.",
".+....@@@........@@#@@@@@@@@@%%@@@@@@@@@@&@@@@@@@@@@@@@@@@@@@@%@@@@@@@@@@&@@@@@@@@@@@@@@@@@@@@$@@@@@@@@@@@@@@%@@@@@@@@@@@&@@@@@@@@@@@@@@@@@@@@@@@@.",
".+...............@@#@@@@@@@@@@%@@@@@@@@@@&@@@@@@@@@@@@@@@@@@@%%@@@@@@@@@@&@@@@@@@@@@@@@@@@@@@@$@@@@@@@@@@@@@@%%@@@@@@@@@@&@@@@@@@@@@@@@@@@@@@@@@@@.",
".+...............@@#@@@@@@@@@@%@@@@@@@@@@&&@@@@@@@@@@@@@@@@@@%@$@@@@@@@@@&@@@@@@@@@@@@@@@@@@@@$@@@@@@@@@@@@@@@%@@@@@@@@@@&@@@@@@@@@@@@@@@@@@@%@@@@.",
".+...............@@#@@@@@@@@@@%%@@@@@@@@@@&@@@@@@@@@@@@@@@@@@%@$@@@@@@@@&@@@@@@@@@@@@@@@@@@@@$@@@@@@@@@@@@@@@@%@@@@@@@@@@@&@@@@@@@@@@@@@@@@@%%@@@@.",
".+...............@@#@@@@@@@@@@@%@@@@@@@@@@&@@@@@@@@@@@@@@@@@%%@$@@@@@@@@&@@@@@@@@@@@@@@@@@@@@$@@@@@@@@@@@@@@@@%%@@@@@@@@@@&@@@@@@@@@@@@@@@@@%@@@@@.",
".+.........@@@@@@@@#@@@@@@@@@@@%@@@@@@@@@@&&@@@@@@@@@@@@@@@@%@@@$@@@@@@@&@@@@@@@@@@@@@@@@@@@@$@@@@@@@@@@@@@@@@@%@@@@@@@@@@&@@@@@@@@@@@@@@@@@%@@@@@.",
".+...............@@#@@@@@@@@@@@%%@@@@@@@@@@&@@@@@@@@@@@@@@@@%@@@$@@@@@@&@@@@@@@@@@@@@@@@@@@@$@@@@@@@@@@@@@@@@@@%@@@@@@@@@@@&@@@@@@@@@@@@@@@%%@@@@@.",
".+...............@@#@@@@@@@@@@@@%@@@@@@@@@@&@@@@@@@@@@@@@@@%%@@@$@@@@@@&@@@@@@@@@@@@@@@@@@@@$@@@@@@@@@@@@@@@@@@%%@@@@@@@@@@&@@@@@@@@@@@@@@@%@@@@@@.",
".+...............@@#@@@@@@@@@@@@%@@@@@@@@@@&&@@@@@@@@@@@@@@%@@@@@$@@@@&&@@@@@@@@@@@@@@@@@@@$$@@@@@@@@@@@@@@@@@@@%@@@@@@@@@@&@@@@@@@@@@@@@@@%@@@@@@.",
".+...............@@#@@@@@@@@@@@@%%@@@@@@@@@@&@@@@@@@@@@@@@@%@@@@@$@@@@&@@@@@@@@@@@@@@@@@@@@$@@@@@@@@@@@@@@@@@@@@%@@@@@@@@@@@&@@@@@@@@@@@@@%%@@@@@@.",
".+...............@@#@@@@@@@@@@@@@%@@@@@@@@@@&&@@@@@@@@@@@@%@@@@@@$$@@@&@@@@@@@@@@@@@@@@@@@@$@@@@@@@@@@@@@@@@@@@@@%@@@@@@@@@@&@@@@@@@@@@@@@%@@@@@@@.",
".+...............@@#@@@@@@@@@@@@@%@@@@@@@@@@@&@@@@@@@@@@@@%@@@@@@@$@@&&@@@@@@@@@@@@@@@@@@@$$@@@@@@@@@@@@@@@@@@@@@%@@@@@@@@@@&&@@@@@@@@@@@@%@@@@@@@.",
".+...............@@#@@@@@@@@@@@@@@%@@@@@@@@@@&@@@@@@@@@@@@%@@@@@@@$@@&@@@@@@@@@@@@@@@@@@@@$@@@@@@@@@@@@@@@@@@@@@@%%@@@@@@@@@@&@@@@@@@@@@@%%@@@@@@@.",
".+.........@@@@@@@@#@@@@@@@@@@@@@@%@@@@@@@@@@&&@@@@@@@@@@%@@@@@@@@$$&&@@@@@@@@@@@@@@@@@@@@$@@@@@@@@@@@@@@@@@@@@@@@%@@@@@@@@@@&@@@@@@@@@@@%@@@@@@@@.",
".+...............@@#@@@@@@@@@@@@@@%%@@@@@@@@@@&@@@@@@@@@@%@@@@@@@@@$&@@@@@@@@@@@@@@@@@@@@$$@@@@@@@@@@@@@@@@@@@@@@@%@@@@@@@@@@&&@@@@@@@@@%%@@@@@@@@.",
".+...............@@#@@@@@@@@@@@@@@@%@@@@@@@@@@&@@@@@@@@@%%@@@@@@@@@$&@@@@@@@@@@@@@@@@@@@@$@@@@@@@@@@@@@@@@@@@@@@@@%%@@@@@@@@@@&@@@@@@@@@%@@@@@@@@@.",
".+...............@@#@@@@@@@@@@@@@@@%%@@@@@@@@@@&@@@@@@@@%@@@@@@@@@@&&@@@@@@@@@@@@@@@@@@@$$@@@@@@@@@@@@@@@@@@@@@@@@@%@@@@@@@@@@&&@@@@@@@@%@@@@@@@@@.",
".+...............@@#@@@@@@@@@@@@@@@@%@@@@@@@@@@&@@@@@@@%%@@@@@@@@@@&$@@@@@@@@@@@@@@@@@@@$@@@@@@@@@@@@@@@@@@@@@@@@@@%%@@@@@@@@@@&@@@@@@@%@@@@@@@@@@.",
".+...............@@#@@@@@@@@@@@@@@@@%@@@@@@@@@@&&@@@@@@%@@@@@@@@@@&&$$@@@@@@@@@@@@@@@@@@$@@@@@@@@@@@@@@@@@@@@@@@@@@@%@@@@@@@@@@&@@@@@@@%@@@@@@@@@@.",
".+...............@@#@@@@@@@@@@@@@@@@@%@@@@@@@@@@&@@@@@@%@@@@@@@@@@&@@$@@@@@@@@@@@@@@@@@$@@@@@@@@@@@@@@@@@@@@@@@@@@@@%%@@@@@@@@@@&@@@@@%%@@@@@@@@@@.",
".+...............@@#@@@@@@@@@@@@@@@@@%@@@@@@@@@@&&@@@@%@@@@@@@@@@&&@@@$@@@@@@@@@@@@@@@@$@@@@@@@@@@@@@@@@@@@@@@@@@@@@@%@@@@@@@@@@&@@@@@%@@@@@@@@@@@.",
".+.........@@@@@@@@#@@@@@@@@@@@@@@@@@@%@@@@@@@@@@&@@@@%@@@@@@@@@@&@@@@$@@@@@@@@@@@@@@@$@@@@@@@@@@@@@@@@@@@@@@@@@@@@@@%%@@@@@@@@@@&@@@%%@@@@@@@@@@@.",
".+...............@@#@@@@@@@@@@@@@@@@@@%%@@@@@@@@@&&@@%@@@@@@@@@@&&@@@@@$@@@@@@@@@@@@@$$@@@@@@@@@@@@@@@@@@@@@@@@@@@@@@@%@@@@@@@@@@&&@@%@@@@@@@@@@@@.",
".+...............@@#@@@@@@@@@@@@@@@@@@@%@@@@@@@@@@&@%%@@@@@@@@@@&@@@@@@$$@@@@@@@@@@@@$@@@@@@@@@@@@@@@@@@@@@@@@@@@@@@@@%%@@@@@@@@@@&@%%@@@@@@@@@@@@.",
".+...............@@#@@@@@@@@@@@@@@@@@@@%%@@@@@@@@@@&%@@@@@@@@@@&&@@@@@@@$@@@@@@@@@@@$$@@@@@@@@@@@@@@@@@@@@@@@@@@@@@@@@@%@@@@@@@@@@&%%@@@@@@@@@@@@@.",
".+...............@@#@@@@@@@@@@@@@@@@@@@@%@@@@@@@@@@%&@@@@@@@@@&&@@@@@@@@$$@@@@@@@@@$$@@@@@@@@@@@@@@@@@@@@@@@@@@@@@@@@@@%%@@@@@@@@@@%&@@@@@@@@@@@@@.",
".+...............@@#@@@@@@@@@@@@@@@@@@@@@%@@@@@@@@%%&&@@@@@@@@&@@@@@@@@@@$$@@@@@@@@$@@@@@@@@@@@@@@@@@@@@@@@@@@@@@@@@@@@@%%@@@@@@@@%%&@@@@@@@@@@@@@.",
".+...............@@#@@@@@@@@@@@@@@@@@@@@@%%@@@@@@%%@@&&@@@@@&&@@@@@@@@@@@@$$@@@@@@$@@@@@@@@@@@@@@@@@@@@@@@@@@@@@@@@@@@@@@%%@@@@@@%%@@&@@@@@@&&@@@@.",
".+...............@@#@@@@@@@@@@@@@@@@@@@@@@%%%@@%%%@@@@&&@@@&&@@@@@@@@@@@@@@$$@@@$$@@@@@@@@@@@@@@@@@@@@@@@@@@@@@@@@@@@@@@@@%%%@@%%%@@@@&&@@@&&@@@@@.",
".+.*@@@@@@@@@@@@@@@#@@@@@@@@@@@@@@@@@@@@@@@@%%%%@@@@@@@&&&&&@@@@@@@@@@@@@@@@$$$$$@@@@@@@@@@@@@@@@@@@@@@@@@@@@@@@@@@@@@@@@@@@%%%%@@@@@@@&&&&@@@@@@@.",
".@@@@@@@@@@@@@@@@@@#@@@@@@@@@@@@@@@@@@@@@@@@@@@@@@@@@@@@@@@@@@@@@@@@@@@@@@@@@@@@@@@@@@@@@@@@@@@@@@@@@@@@@@@@@@@@@@@@@@@@@@@@@@@@@@@@@@@@@@@@@@@@@@.",
"...................++++++++++++++++++++++++++++++++++++++++++++++++++++++++++++++++++++++++++++++++++++++++++++++++++++++++++++++++++++++++++++++@.",
"...................+.............................................................................................................................@.",
"...................+............................................................................................................................*@.",
"...................@...@@@......................................................................................................................*@.",
"...................@..@...@.....................................................................................................................*@.",
"...................@..@...@.....................................................................................................................*@.",
"...................@..@...@.....................................................................................................................*@.",
"...................@..@...@.....................................................................................................................*@.",
"...................@..@...@.....................................................................................................................*@.",
"...................@..@...@.....................................................................................................................*@.",
"...................@..@...@.................@.........................@........................@........................@.......................*@.",
"...................@@@@@@@..................@.........................@........................@........................@.......................*@.",
"...................@@@......................@.........................@........................@........................@.......................*@.",
"...................@@...........@...........@............@............@...........@............@............@...........@............@..........*@.",
"...................@............@...........@............@............@...........@............@............@...........@............@..........*@.",
"...................@............@...........@............@............@...........@............@............@...........@............@..........*@.",
"...................@.@@@@@@@@@@@@@@@@@@@@@@@@@@@@@@@@@@@@@@@@@@@@@@@@@@@@@@@@@@@@@@@@@@@@@@@@@@@@@@@@@@@@@@@@@@@@@@@@@@@@@@@@@@@@@@@@@@@@@@@@@@@@@.",
"...................@@@@@@@@@@@@@@@@@@@@@@@@@@@@@@@@@@@@@@@@@@@@@@@@@@@@@@@@@@@@@@@@@@@@@@@@@@@@@@@@@@@@@@@@@@@@@@@@@@@@@@@@@@@@@@@@@@@@@@@@@@@@@@@.",
"..................................................................................................................................................."};
