/* XPM */
static char * gdisp_okButton2[] = {
"16 16 17 1",
" 	c None",
".	c #272727",
"+	c #0E0E0E",
"@	c #94EF8E",
"#	c #76E16E",
"$	c #28E820",
"%	c #50DC48",
"&	c #62D85A",
"*	c #58CF50",
"=	c #27C21F",
"-	c #2A9B21",
";	c #4EC746",
">	c #194F16",
",	c #31D327",
"'	c #35B12D",
")	c #1A8616",
"!	c #12660E",
"     .....+     ",
"   ..@@@@##.+   ",
"  .@@@$$$$%#&+  ",
" .@@$$$$$$$$&*+ ",
" .@$$$$$$$$$$*. ",
".@@$$$$$$$=-$;;+",
".@$$$$$$$=>$$$;+",
".@$$$$$$,>-$$$'+",
".#$$')=$!!$$$$'+",
".#$$$)>!!-$$$,-+",
"+&%$$$)>!$$$$=-+",
" .%$$$$),$$$,)+ ",
" +&*$$$$$$$$))+ ",
"  +*,,$$$$=)!+  ",
"   ++;''-))++   ",
"     ++++++     "};
