/* XPM */
static char * gdisp_textLogo[] = {
"146 107 6 1",
".	c None",
"+	c #969696",
"@	c #000000",
"#	c #FFFFFF",
"$	c #010101",
"%	c #FEFEFE",
"..................................................................................................................................................",
".++++++++++++++++++++++++++++++++++++++++++++++++++++++++++++++++++++++++++++++++++++++++++++++++++++++++++++++++++++++++++++++++++++++++++++++++.",
".+@@@@@@@@@@@@@@@@@@@@@@@@@@@@@@@@@@@@@@@@@@@@@@@@@@@@@@@@@@@@@@@@@@@@@@@@@@@@@@@@@@@@@@@@@@@@@@@@@@@@@@@@@@@@@@@@@@@@@@@@@@@@@@@@@@@@@@@@@@@@@@#.",
".+@############################################################################@###############################################################.#.",
".+@#...........................................................................@#...............................................................#.",
".+@#..........................................................................+@#...............................................................#.",
".+@#..........................................................................+@#...............................................................#.",
".+@#..........................................................................+@#...............................................................#.",
".+@#..........................................................................+@#...............................................................#.",
".+@#....@@@@...................@.............@................................+@#...@.....@.........@...........................................#.",
".+@#...@....@..................@.............@................................+@#...@.....@.........@...........................................#.",
".+@#...@.......@...@..@.@..@...@.@@....@@@...@...@@...........................+@#....@...@....@@@...@..@...@...@@@....@@........................#.",
".+@#....@@.....@...@..@@.@@.@..@@..@..@...@..@..@..@..........................+@#....@...@...@...@..@..@...@..@...@..@..@.......................#.",
".+@#......@@...@...@..@..@..@..@...@..@...@..@..@.............................+@#....@...@.......@..@..@...@..@...@..@..........................#.",
".+@#........@..@..@...@..@..@..@...@..@...@..@...@@...........................+@#.....@.@.....@@@@..@..@...@..@@@@@...@@........................#.",
".+@#...@....@...@.@...@..@..@..@...@..@...@..@.....@..........................+@#.....@.@....@...@..@..@...@..@.........@.......................#.",
".+@#...@....@...@.@...@..@..@..@@..@..@...@..@..@..@..........................+@#......@.....@...@..@..@..@@..@...@..@..@.......................#.",
".+@#....@@@@.....@....@..@..@..@.@@....@@@...@...@@...........................+@#......@......@@@.@.@...@@.@...@@@....@@........................#.",
".+@#.............@............................................................+@#...............................................................#.",
".+@#............@.............................................................+@#...............................................................#.",
".+@#...........@..............................................................+@#...............................................................#.",
".+@#..........................................................................+@#...............................................................#.",
".+@#..........................................................................+@#...............................................................#.",
".+@#.++++++++++++++++++++++++++++++++++++++++++++++++++++++++++++++++++++++++++@#.+++++++++++++++++++++++++++++++++++++++++++++++++++++++++++++.#.",
".+@@@@@@@@@@@@@@@@@@@@@@@@@@@@@@@@@@@@@@@@@@@@@@@@@@@@@@@@@@@@@@@@@@@@@@@@@@@@@@@@@@@@@@@@@@@@@@@@@@@@@@@@@@@@@@@@@@@@@@@@@@@@@@@@@@@@@@@@@@@@@.#.",
".+@############################################################################################################################################.#.",
".+@$$$$$$$$$$$$$$$$$$$$$$$$$$$$$$$$$$$$$$$$$$$$$$$$$$$$$$$$$$$$$$$$$$$$$$$$$$$$$$$$$$$$$$$$$$$$$$$$$$$$$$$$$$$$$$$$$$$$$$$$$$$$$$$$$$$$$$$$$$$$.#.",
".+@$%%%%%%%%%%%%%%%%%%%%%%%%%%%%%%%%%%%%%%%%%%%%%%%%%%%%%%%%%%%%%%%%%%%%%%%%%%%%%%%%%%%%%%%%%%%%%%%%%%%%%%%%%%%%%%%%%%%%%%%%%%%%%%%%%%%%%%%%%%$.#.",
".+@$%%%%%%%%%%%%%%%%%%%%%%%%%%%%%%%%%%%%%%%%%%%%%%%%%%%%%%%%%%%%%%%%%%%%%%%%%%%%%%%%%%%%%%%%%%%%%%%%%%%%%%%%%%%%%%%%%%%%%%%%%%%%%%%%%%%%%%%%%%$.#.",
".+@$%%%%%@@@@%%%%%%%%%%%%%%%%%%%@%%%%%%%%%%%%%@%%%%@%%%%%%%%%%%%%%%%%%%%%%%%%%%%%%%%%%@@@%%%%%%@@@@@%%%@@@%%%%%%@%%%%@@@%%%%%@%%%%@@@@@%%%%%%%$.#.",
".+@$%%%%@%%%%@%%%%%%%%%%%%%%%%%%@%%%%%%%%%%%%%@%%@@@%%%%%%%%%%%%%%%%%%%%%%%%%%%%%%%%%@%%%@%%%%%@%%%%%%@%%%@%%%%@@%%%@%%%@%%@@@%%%%%%%%@%%%%%%%$.#.",
".+@$%%%%@%%%%%%%@%%%@%%@%@%%@%%%@%@@%%%%@@@%%%@%%%%@%%%%%%%%%%%%%%%%%%%%%%%%%%%%%%%%%@%%%@%%%%%@%%%%%%@%%%@%%%@%@%%%@%%%@%%%%@%%%%%%%@%%%%%%%%$.#.",
".+@$%%%%%@@%%%%%@%%%@%%@@%@@%@%%@@%%@%%@%%%@%%@%%%%@%%%%%%%%%%%%%%%%%%%%%%%%%%%%%%%%%@%%%@%%%%%@@@@%%%%@@@%%%%@%@%%%@%%%@%%%%@%%%%%%%@%%%%%%%%$.#.",
".+@$%%%%%%%@@%%%@%%%@%%@%%@%%@%%@%%%@%%@%%%@%%@%%%%@%%%%%%%%%%%%%%%%%%%%%%%%%%%%%%%%%@%%%@%%%%%%%%%@%%@%%%@%%@%%@%%%%@@@@%%%%@%%%%%%@%%%%%%%%%$.#.",
".+@$%%%%%%%%%@%%@%%@%%%@%%@%%@%%@%%%@%%@%%%@%%@%%%%@%%%%%%%%%%%%%%%%%%%%%%%%%%%%%%%%%@%%%@%%%%%%%%%@%%@%%%@%@%%%@%%%%%%%@%%%%@%%%%%%@%%%%%%%%%$.#.",
".+@$%%%%@%%%%@%%%@%@%%%@%%@%%@%%@%%%@%%@%%%@%%@%%%%@%%%%%%%%%%%%%%%%%%%%%%%%%%%%%%%%%@%%%@%%%%%@%%%@%%@%%%@%@@@@@@%%%%%%@%%%%@%%%%%%@%%%%%%%%%$.#.",
".+@$%%%%@%%%%@%%%@%@%%%@%%@%%@%%@@%%@%%@%%%@%%@%%%%@%%%%%%%%%%%%%%%%%%%%%%%%%%%%%%%%%@%%%@%%%%%@%%%@%%@%%%@%%%%%@%%%@%%%@%%%%@%%%%%@%%%%%%%%%%$.#.",
".+@$%%%%%@@@@%%%%%@%%%%@%%@%%@%%@%@@%%%%@@@%%%@%%%%@%%%%%%%%%%%%%%%%%%%%%%%%%%%%%%%%%%@@@%%%@%%%@@@%%%%@@@%%%%%%@%%%%@@@%%%%%@%%%%%@%%%%%%%%%%$.#.",
".+@$%%%%%%%%%%%%%%@%%%%%%%%%%%%%%%%%%%%%%%%%%%%%%%%%%%%%%%%%%%%%%%%%%%%%%%%%%%%%%%%%%%%%%%%%%%%%%%%%%%%%%%%%%%%%%%%%%%%%%%%%%%%%%%%%%%%%%%%%%%$.#.",
".+@$%%%%%%%%%%%%%@%%%%%%%%%%%%%%%%%%%%%%%%%%%%%%%%%%%%%%%%%%%%%%%%%%%%%%%%%%%%%%%%%%%%%%%%%%%%%%%%%%%%%%%%%%%%%%%%%%%%%%%%%%%%%%%%%%%%%%%%%%%%$.#.",
".+@$$$$$$$$$$$$$#$$$$$$$$$$$$$$$$$$$$$$$$$$$$$$$$$$$$$$$$$$$$$$$$$$$$$$$$$$$$$$$$$$$$$$$$$$$$$$$$$$$$$$$$$$$$$$$$$$$$$$$$$$$$$$$$$$$$$$$$$$$$$$.#.",
".+@############################################################################################################################################.#.",
".+@%%%%%%%%%%%%%%%%%%%%%%%%%%%%%%%%%%%%%%%%%%%%%%%%%%%%%%%%%%%%%%%%%%%%%%%%%%%%%%%%%%%%%%%%%%%%%%%%%%%%%%%%%%%%%%%%%%%%%%%%%%%%%%%%%%%%%%%%%%%%.#.",
".+@%%%%%%%%%%%%%%%%%%%%%%%%%%%%%%%%%%%%%%%%%%%%%%%%%%%%%%%%%%%%%%%%%%%%%%%%%%%%%%%%%%%%%%%%%%%%%%%%%%%%%%%%%%%%%%%%%%%%%%%%%%%%%%%%%%%%%%%%%%%%.#.",
".+@%%%%%%%%%%%%%%%%%%%%%%%%%%%%%%%%%%%%%%%%%%%%%%%%%%%%%%%%%%%%%%%%%%%%%%%%%%%%%%%%%%%%%%%%%%%%%%%%%%%%%%%%%%%%%%%%%%%%%%%%%%%%%%%%%%%%%%%%%%%%.#.",
".+@%%%%%%@@@@%%%%%%%%%%%%%%%%%%%@%%%%%%%%%%%%%@%%%%@%%%%%@@@%%%%%%%%%%%%%%%%%%%%%%%%%%%%%%%@@@%%%%%%%@@@%%%%@@@%%%%@@@%%%%@@@%%%%@@@%%%%@@@%%%%.#.",
".+@%%%%%@%%%%@%%%%%%%%%%%%%%%%%%@%%%%%%%%%%%%%@%%@@@%%%%@%%%@%%%%%%%%%%%%%%%%%%%%%%%%%%%%%@%%%@%%%%%@%%%@%%@%%%@%%@%%%@%%@%%%@%%@%%%@%%@%%%@%%%.#.",
".+@%%%%%@%%%%%%%@%%%@%%@%@%%@%%%@%@@%%%%@@@%%%@%%%%@%%%%@%%%@%%%%%%%%%%%%%%%%%%%%%%%%%%%%%@%%%@%%%%%@%%%@%%@%%%%%%@%%%@%%%%%%@%%@%%%@%%%%%%@%%%.#.",
".+@%%%%%%@@%%%%%@%%%@%%@@%@@%@%%@@%%@%%@%%%@%%@%%%%@%%%%@%%%@%%%%%%%%%%%%%%%%%%%%%%%%%%%%%@%%%@%%%%%%@@@%%%@%@@%%%@%%%@%%%%@@%%%%@@@%%%%%%@%%%%.#.",
".+@%%%%%%%%@@%%%@%%%@%%@%%@%%@%%@%%%@%%@%%%@%%@%%%%@%%%%@%%%@%%%%%%%%%%%%%%%%%%%%%%%%%%%%%@%%%@%%%%%@%%%@%%@@%%@%%@%%%@%%%%%%@%%@%%%@%%%%@%%%%%.#.",
".+@%%%%%%%%%%@%%@%%@%%%@%%@%%@%%@%%%@%%@%%%@%%@%%%%@%%%%@%%%@%%%%%%%%%%%%%%%%%%%%%%%@@@@%%@%%%@%%%%%@%%%@%%@%%%@%%@%%%@%%%%%%@%%@%%%@%%%@%%%%%%.#.",
".+@%%%%%@%%%%@%%%@%@%%%@%%@%%@%%@%%%@%%@%%%@%%@%%%%@%%%%@%%%@%%%%%%%%%%%%%%%%%%%%%%%%%%%%%@%%%@%%%%%@%%%@%%@%%%@%%@%%%@%%@%%%@%%@%%%@%%@%%%%%%%.#.",
".+@%%%%%@%%%%@%%%@%@%%%@%%@%%@%%@@%%@%%@%%%@%%@%%%%@%%%%@%%%@%%%%%%%%%%%%%%%%%%%%%%%%%%%%%@%%%@%%%%%@%%%@%%@%%%@%%@%%%@%%@%%%@%%@%%%@%%@%%%%%%%.#.",
".+@%%%%%%@@@@%%%%%@%%%%@%%@%%@%%@%@@%%%%@@@%%%@%%%%@%%%%%@@@%%%%%%%%%%%%%%%%%%%%%%%%%%%%%%%@@@%%%@%%%@@@%%%%@@@%%%%@@@%%%%@@@%%%%@@@%%%@@@@@%%%.#.",
".+@%%%%%%%%%%%%%%%@%%%%%%%%%%%%%%%%%%%%%%%%%%%%%%%%%%%%%%%%%%%%%%%%%%%%%%%%%%%%%%%%%%%%%%%%%%%%%%%%%%%%%%%%%%%%%%%%%%%%%%%%%%%%%%%%%%%%%%%%%%%%.#.",
".+@%%%%%%%%%%%%%%@%%%%%%%%%%%%%%%%%%%%%%%%%%%%%%%%%%%%%%%%%%%%%%%%%%%%%%%%%%%%%%%%%%%%%%%%%%%%%%%%%%%%%%%%%%%%%%%%%%%%%%%%%%%%%%%%%%%%%%%%%%%%%.#.",
".+@%%%%%%%%%%%%%@%%%%%%%%%%%%%%%%%%%%%%%%%%%%%%%%%%%%%%%%%%%%%%%%%%%%%%%%%%%%%%%%%%%%%%%%%%%%%%%%%%%%%%%%%%%%%%%%%%%%%%%%%%%%%%%%%%%%%%%%%%%%%%.#.",
".+@############################################################################################################################################.#.",
".+@%%%%%%%%%%%%%%%%%%%%%%%%%%%%%%%%%%%%%%%%%%%%%%%%%%%%%%%%%%%%%%%%%%%%%%%%%%%%%%%%%%%%%%%%%%%%%%%%%%%%%%%%%%%%%%%%%%%%%%%%%%%%%%%%%%%%%%%%%%%%.#.",
".+@%%%%%%%%%%%%%%%%%%%%%%%%%%%%%%%%%%%%%%%%%%%%%%%%%%%%%%%%%%%%%%%%%%%%%%%%%%%%%%%%%%%%%%%%%%%%%%%%%%%%%%%%%%%%%%%%%%%%%%%%%%%%%%%%%%%%%%%%%%%%.#.",
".+@%%%%%%%%%%%%%%%%%%%%%%%%%%%%%%%%%%%%%%%%%%%%%%%%%%%%%%%%%%%%%%%%%%%%%%%%%%%%%%%%%%%%%%%%%%%%%%%%%%%%%%%%%%%%%%%%%%%%%%%%%%%%%%%%%%%%%%%%%%%%.#.",
".+@%%%%%%@@@@%%%%%%%%%%%%%%%%%%%@%%%%%%%%%%%%%@%%%%@%%%%%@@@%%%%@@@%%%%%%%%%%%%%%%%%%%%%%%%@@@%%%%%%%@@@%%%%@@@%%%%%%@%%%%@@@%%%%%%@%%%%%%@%%%%.#.",
".+@%%%%%@%%%%@%%%%%%%%%%%%%%%%%%@%%%%%%%%%%%%%@%%@@@%%%%@%%%@%%@%%%@%%%%%%%%%%%%%%%%%%%%%%@%%%@%%%%%@%%%@%%@%%%@%%%%@@%%%@%%%@%%%%@@%%%%%@@%%%%.#.",
".+@%%%%%@%%%%%%%@%%%@%%@%@%%@%%%@%@@%%%%@@@%%%@%%%%@%%%%@%%%@%%@%%%@%%%%%%%%%%%%%%%%%%%%%%@%%%@%%%%%@%%%@%%%%%%@%%%@%@%%%@%%%@%%%@%@%%%%@%@%%%%.#.",
".+@%%%%%%@@%%%%%@%%%@%%@@%@@%@%%@@%%@%%@%%%@%%@%%%%@%%%%@%%%@%%@%%%@%%%%%%%%%%%%%%%%%%%%%%@%%%@%%%%%@%%%@%%%%@@%%%%@%@%%%@%%%@%%%@%@%%%%@%@%%%%.#.",
".+@%%%%%%%%@@%%%@%%%@%%@%%@%%@%%@%%%@%%@%%%@%%@%%%%@%%%%@%%%@%%@%%%@%%%%%%%%%%%%%%%%%%%%%%@%%%@%%%%%%@@@@%%%%%%@%%@%%@%%%@%%%@%%@%%@%%%@%%@%%%%.#.",
".+@%%%%%%%%%%@%%@%%@%%%@%%@%%@%%@%%%@%%@%%%@%%@%%%%@%%%%@%%%@%%@%%%@%%%%%%%%%%%%%%%%@@@@%%@%%%@%%%%%%%%%@%%%%%%@%@%%%@%%%@%%%@%@%%%@%%@%%%@%%%%.#.",
".+@%%%%%@%%%%@%%%@%@%%%@%%@%%@%%@%%%@%%@%%%@%%@%%%%@%%%%@%%%@%%@%%%@%%%%%%%%%%%%%%%%%%%%%%@%%%@%%%%%%%%%@%%@%%%@%@@@@@@%%@%%%@%@@@@@@%@@@@@@%%%.#.",
".+@%%%%%@%%%%@%%%@%@%%%@%%@%%@%%@@%%@%%@%%%@%%@%%%%@%%%%@%%%@%%@%%%@%%%%%%%%%%%%%%%%%%%%%%@%%%@%%%%%@%%%@%%@%%%@%%%%%@%%%@%%%@%%%%%@%%%%%%@%%%%.#.",
".+@%%%%%%@@@@%%%%%@%%%%@%%@%%@%%@%@@%%%%@@@%%%@%%%%@%%%%%@@@%%%%@@@%%%%%%%%%%%%%%%%%%%%%%%%@@@%%%@%%%@@@%%%%@@@%%%%%%@%%%%@@@%%%%%%@%%%%%%@%%%%.#.",
".+@%%%%%%%%%%%%%%%@%%%%%%%%%%%%%%%%%%%%%%%%%%%%%%%%%%%%%%%%%%%%%%%%%%%%%%%%%%%%%%%%%%%%%%%%%%%%%%%%%%%%%%%%%%%%%%%%%%%%%%%%%%%%%%%%%%%%%%%%%%%%.#.",
".+@%%%%%%%%%%%%%%@%%%%%%%%%%%%%%%%%%%%%%%%%%%%%%%%%%%%%%%%%%%%%%%%%%%%%%%%%%%%%%%%%%%%%%%%%%%%%%%%%%%%%%%%%%%%%%%%%%%%%%%%%%%%%%%%%%%%%%%%%%%%%.#.",
".+@%%%%%%%%%%%%%@%%%%%%%%%%%%%%%%%%%%%%%%%%%%%%%%%%%%%%%%%%%%%%%%%%%%%%%%%%%%%%%%%%%%%%%%%%%%%%%%%%%%%%%%%%%%%%%%%%%%%%%%%%%%%%%%%%%%%%%%%%%%%%.#.",
".+@############################################################################################################################################.#.",
".+@%%%%%%%%%%%%%%%%%%%%%%%%%%%%%%%%%%%%%%%%%%%%%%%%%%%%%%%%%%%%%%%%%%%%%%%%%%%%%%%%%%%%%%%%%%%%%%%%%%%%%%%%%%%%%%%%%%%%%%%%%%%%%%%%%%%%%%%%%%%%.#.",
".+@%%%%%%%%%%%%%%%%%%%%%%%%%%%%%%%%%%%%%%%%%%%%%%%%%%%%%%%%%%%%%%%%%%%%%%%%%%%%%%%%%%%%%%%%%%%%%%%%%%%%%%%%%%%%%%%%%%%%%%%%%%%%%%%%%%%%%%%%%%%%.#.",
".+@%%%%%%%%%%%%%%%%%%%%%%%%%%%%%%%%%%%%%%%%%%%%%%%%%%%%%%%%%%%%%%%%%%%%%%%%%%%%%%%%%%%%%%%%%%%%%%%%%%%%%%%%%%%%%%%%%%%%%%%%%%%%%%%%%%%%%%%%%%%%.#.",
".+@%%%%%@%%%%%%%%%%%%%%%%%%%%%%%%%%%%%%%%%%%%%%%%%%%%%%%%%%%%%%%%%%%%%%%%%%%%%%%%%%%%%@@@%%%%%%@@@@@%%%@@@%%%%@@@%%%%@@@%%%%@@@%%%%@@@%%%%%%%%%.#.",
".+@%%%%%@%%%%%%%%%%%%%%%%%%%%%%%%%%%%%%%%%%%%%%%%%%%%%%%%%%%%%%%%%%%%%%%%%%%%%%%%%%%%@%%%@%%%%%%%%%@%%@%%%@%%@%%%@%%@%%%@%%@%%%@%%@%%%@%%%%%%%%.#.",
".+@%%%%@@@%%%%%%%%%%%%%%%%%%%%%%%%%%%%%%%%%%%%%%%%%%%%%%%%%%%%%%%%%%%%%%%%%%%%%%%%%%%@%%%@%%%%%%%%@%%%@%%%@%%@%%%@%%@%%%@%%@%%%@%%@%%%@%%%%%%%%.#.",
".+@%%%%%@%%%%%%%%%%%%%%%%%%%%%%%%%%%%%%%%%%%%%%%%%%%%%%%%%%%%%%%%%%%%%%%%%%%%%%%%%%%%%@@@%%%%%%%%%@%%%@%%%@%%@%%%@%%@%%%@%%@%%%@%%@%%%@%%%%%%%%.#.",
".+@%%%%%@%%%%%%%%%%%%%%%%%%%%%%%%%%%%%%%%%%%%%%%%%%%%%%%%%%%%%%%%%%%%%%%%%%%%%%%%%%%%@%%%@%%%%%%%@%%%%%@@@@%%@%%%@%%@%%%@%%@%%%@%%@%%%@%%%%%%%%.#.",
".+@%%%%%@%%%%%%%%%%%%%%%%%%%%%%%%%%%%%%%%%%%%%%%%%%%%%%%%%%%%%%%%%%%%%%%%%%%%%%%%%%%%@%%%@%%%%%%%@%%%%%%%%@%%@%%%@%%@%%%@%%@%%%@%%@%%%@%%%%%%%%.#.",
".+@%%%%%@%%%%%%%%%%%%%%%%%%%%%%%%%%%%%%%%%%%%%%%%%%%%%%%%%%%%%%%%%%%%%%%%%%%%%%%%%%%%@%%%@%%%%%%%@%%%%%%%%@%%@%%%@%%@%%%@%%@%%%@%%@%%%@%%%%%%%%.#.",
".+@%%%%%@%%%%%%%%%%%%%%%%%%%%%%%%%%%%%%%%%%%%%%%%%%%%%%%%%%%%%%%%%%%%%%%%%%%%%%%%%%%%@%%%@%%%%%%@%%%%%@%%%@%%@%%%@%%@%%%@%%@%%%@%%@%%%@%%%%%%%%.#.",
".+@%%%%%@@%%%%%%%%%%%%%%%%%%%%%%%%%%%%%%%%%%%%%%%%%%%%%%%%%%%%%%%%%%%%%%%%%%%%%%%%%%%%@@@%%%@%%%@%%%%%%@@@%%%%@@@%%%%@@@%%%%@@@%%%%@@@%%%%%%%%%.#.",
".+@%%%%%%%%%%%%%%%%%%%%%%%%%%%%%%%%%%%%%%%%%%%%%%%%%%%%%%%%%%%%%%%%%%%%%%%%%%%%%%%%%%%%%%%%%%%%%%%%%%%%%%%%%%%%%%%%%%%%%%%%%%%%%%%%%%%%%%%%%%%%.#.",
".+@%%%%%%%%%%%%%%%%%%%%%%%%%%%%%%%%%%%%%%%%%%%%%%%%%%%%%%%%%%%%%%%%%%%%%%%%%%%%%%%%%%%%%%%%%%%%%%%%%%%%%%%%%%%%%%%%%%%%%%%%%%%%%%%%%%%%%%%%%%%%.#.",
".+@%%%%%%%%%%%%%%%%%%%%%%%%%%%%%%%%%%%%%%%%%%%%%%%%%%%%%%%%%%%%%%%%%%%%%%%%%%%%%%%%%%%%%%%%%%%%%%%%%%%%%%%%%%%%%%%%%%%%%%%%%%%%%%%%%%%%%%%%%%%%.#.",
".+@############################################################################################################################################.#.",
".+@%%%%%%%%%%%%%%%%%%%%%%%%%%%%%%%%%%%%%%%%%%%%%%%%%%%%%%%%%%%%%%%%%%%%%%%%%%%%%%%%%%%%%%%%%%%%%%%%%%%%%%%%%%%%%%%%%%%%%%%%%%%%%%%%%%%%%%%%%%%%.#.",
".+@%%%%%%%%%%%%%%%%%%%%%%%%%%%%%%%%%%%%%%%%%%%%%%%%%%%%%%%%%%%%%%%%%%%%%%%%%%%%%%%%%%%%%%%%%%%%%%%%%%%%%%%%%%%%%%%%%%%%%%%%%%%%%%%%%%%%%%%%%%%%.#.",
".+@%%%%%%%%%%%%%%%%%%%%%%%%%%%%%%%%%%%%%%%%%%%%%%%%%%%%%%%%%%%%%%%%%%%%%%%%%%%%%%%%%%%%%%%%%%%%%%%%%%%%%%%%%%%%%%%%%%%%%%%%%%%%%%%%%%%%%%%%%%%%.#.",
".+@%%%%%%%%%%%%%%%%%%%%%%%%%%%%%%%%%%%%%%%%%%%%%%%%%%%%%%%%%%%%%%%%%%%%%%%%%%%%%%%%%%%%%%%%%%%%%%%%%%%%%%%%%%%%%%%%%%%%%%%%%%%%%%%%%%%%%%%%%%%%.#.",
".+@%%%%%%%%%%%%%%%%%%%%%%%%%%%%%%%%%%%%%%%%%%%%%%%%%%%%%%%%%%%%%%%%%%%%%%%%%%%%%%%%%%%%%%%%%%%%%%%%%%%%%%%%%%%%%%%%%%%%%%%%%%%%%%%%%%%%%%%%%%%%.#.",
".+@%%%%%%%%%%%%%%%%%%%%%%%%%%%%%%%%%%%%%%%%%%%%%%%%%%%%%%%%%%%%%%%%%%%%%%%%%%%%%%%%%%%%%%%%%%%%%%%%%%%%%%%%%%%%%%%%%%%%%%%%%%%%%%%%%%%%%%%%%%%%.#.",
".+@%%%%%%%%%%%%%%%%%%%%%%%%%%%%%%%%%%%%%%%%%%%%%%%%%%%%%%%%%%%%%%%%%%%%%%%%%%%%%%%%%%%%%%%%%%%%%%%%%%%%%%%%%%%%%%%%%%%%%%%%%%%%%%%%%%%%%%%%%%%%.#.",
".+@%%%%%%%%%%%%%%%%%%%%%%%%%%%%%%%%%%%%%%%%%%%%%%%%%%%%%%%%%%%%%%%%%%%%%%%%%%%%%%%%%%%%%%%%%%%%%%%%%%%%%%%%%%%%%%%%%%%%%%%%%%%%%%%%%%%%%%%%%%%%.#.",
".+@%%%%%%%%%%%%%%%%%%%%%%%%%%%%%%%%%%%%%%%%%%%%%%%%%%%%%%%%%%%%%%%%%%%%%%%%%%%%%%%%%%%%%%%%%%%%%%%%%%%%%%%%%%%%%%%%%%%%%%%%%%%%%%%%%%%%%%%%%%%%.#.",
".+@%%%%%%%%%%%%%%%%%%%%%%%%%%%%%%%%%%%%%%%%%%%%%%%%%%%%%%%%%%%%%%%%%%%%%%%%%%%%%%%%%%%%%%%%%%%%%%%%%%%%%%%%%%%%%%%%%%%%%%%%%%%%%%%%%%%%%%%%%%%%.#.",
".+@%%%%%%%%%%%%%%%%%%%%%%%%%%%%%%%%%%%%%%%%%%%%%%%%%%%%%%%%%%%%%%%%%%%%%%%%%%%%%%%%%%%%%%%%%%%%%%%%%%%%%%%%%%%%%%%%%%%%%%%%%%%%%%%%%%%%%%%%%%%%.#.",
".+@%%%%%%%%%%%%%%%%%%%%%%%%%%%%%%%%%%%%%%%%%%%%%%%%%%%%%%%%%%%%%%%%%%%%%%%%%%%%%%%%%%%%%%%%%%%%%%%%%%%%%%%%%%%%%%%%%%%%%%%%%%%%%%%%%%%%%%%%%%%%.#.",
".+@%%%%%%%%%%%%%%%%%%%%%%%%%%%%%%%%%%%%%%%%%%%%%%%%%%%%%%%%%%%%%%%%%%%%%%%%%%%%%%%%%%%%%%%%%%%%%%%%%%%%%%%%%%%%%%%%%%%%%%%%%%%%%%%%%%%%%%%%%%%%.#.",
".+@%%%%%%%%%%%%%%%%%%%%%%%%%%%%%%%%%%%%%%%%%%%%%%%%%%%%%%%%%%%%%%%%%%%%%%%%%%%%%%%%%%%%%%%%%%%%%%%%%%%%%%%%%%%%%%%%%%%%%%%%%%%%%%%%%%%%%%%%%%%%.#.",
".+@.............................................................................................................................................#.",
".+###############################################################################################################################################.",
".................................................................................................................................................."};
