/* XPM */
static char * gdisp_gdispLogo[] = {
"70 53 16 1",
".	c #557F55",
"+	c #8CA48C",
"@	c #97AA97",
"#	c #94BD94",
"$	c #A4B9A4",
"%	c #B4C1B4",
"&	c #B7D0B7",
"*	c #BDD6BD",
"=	c #C8CEC8",
"-	c #D3E1D3",
";	c #E4ECE4",
">	c #E7F7E7",
",	c #EFEFEF",
"'	c #F3F7F3",
")	c #F7FFF7",
"!	c None",
"!!!!!!!!!!!!!!!!!!!!!!!!!=#$$+#*'!!!!!!!!!!!!!!!!!!!!!!!!!!!!!!!!!!!!!",
"!!!!!!!!!!!!!!!!!!!!!!!!,$***&##+;!!!!!!!!!!!!!!!!!!!!!!!!!!!!!!!!!!!!",
"!!!!!!!!!!!!!!!!!!!!!!!!******$##@!!!!!!!!!'-----'!!!!!!!!!!!!!!!!!!!!",
"!!!!!!!!!!!!!!!!!!!!!!!!$*****$##+-!!!!!;*$$&&&&&$%&=;!!!!!!!!!!!!!!!!",
"!!!!!!!!,====,!!!!!!!!!,$*****$####!!)-%&************%%-!!!!!!!!!!!!!!",
"!!!!!!-%$****$%=,!!!!!!;&*****$###+='$&****************&%;!!!!!!!!!!!!",
"!!!!!-%*********%*!!!!!%******$####+$&*******************%*'!!!!!!!!!!",
"!!!!;$*****&&&****=!!!'$******#####+&**********************%'!!!!!!!!!",
"!!!!%****$#####%**%,!!&*******####+$************************$'!!!!!!!!",
"!!!'$***########$*&-!!%**$***$####+$*************************%'!!!!!!!",
"!!!-***&#########*&-!!$*&+&**####+#$***************************!!!!!!!",
"!!!=***$#########&&-!-&*$+$**+++++#$**************************&-!!!!!!",
"!!!&***$##++++###$&-!-*&+.@&@$#$#++#$**************************%!!!!!!",
"!!!&***##+;%..+##$$'!&*$++@+@*&$#####************&#$**********&$;!!!!!",
"!!!%***##$!'..+###$!!&*#+%==%%$&*&$$$************##$**********$$;!!!!!",
"!!'$***##&!'..+####!!$&++=>>-==%@%%****&##&*****&###**********#$;!!!!!",
")-$***&#+=!'..+###+!;$$+$->>>>;=%=%$$&***#$##$&*&##+$$%******&#$;!!!!!",
"$%****$#+;!,..+###+!-&#+%->-$>;==$=-=%$&****@##*&+$===$******%#$;!!!!!",
"$****&##$!!*..+###+!%*++==$..>-=%->>>-=%$&**$++%$%$@$$$*****$##$;!!!!!",
"@$&&*##+;!!+..+###+=$&+@%;...*-==-.#>>>==%&*%+$=%@+#*%%****$###%;!!!!!",
"%+####+=!!!....###+%*#++%;....-%->&..>>>-=%$%=%@+###*$%***%###&$'!!!!!",
")@###+-!!!!....+##+*$+.+=%-++-=$->>..>>>>-=%$$+#####*%@**$####%-!!!!!!",
"!'*&&;!!!!,.....##++#+.+%%%--=$+=....>>>>;=$*&######&***$####$%!!!!!!!",
"!!!!!!!!;&%&&%#++##++...+%=%$=@+$@..$>>>>-=$*$#######%&$####$%'!!!!!!!",
"!!!!!!!-$******&$+#$+....$$$=@+#@%&$>>>>>==$*##############$*'!!!!!!!!",
"!!!!!!)%****&$####+#&*&$***@++##+%%>>>>,>==$*############$#@)!!!!!!!!!",
"!!!!!!=****########+#&*****######@%=>>>>>=%$$##########$$##+#;!!!!!!!!",
"!!!!!)%***$#########++#$&%#######+%%=>>>>%%$##########$**&$###!!!!!!!!",
"!!!!!-&**$############++#########++$%%%*%%$&#%&&$$$$$&*****###*!!!!!!!",
"!!!!!=*&###############+###########$%%%%%$*&&$*;!!;$&******$###!!!!!!!",
"!!!!!$#########+++##################$&%%&**%&'!!!!;%*******$##+!!!!!!!",
"!!!!)@#########...+######################*&+!!!!!)%********&##+!!!!!!!",
"!!!!,+########+....+####################$*++)!!!!-&********&##+!!!!!!!",
"!!!!=#########+.....################$$&**#+.;!!!!%**&###***$##+!!!!!!!",
"!!!!$#########......+###########$&*******+...%'!;%**+...$**###+!!!!!!!",
"!!!!++#####+++++@#++.+##########%********+....+%&**&....$**###+!!!!!!!",
"!!!!+##########&****&++##########%*******$+.....#**@....$**###$!!!!!!!",
"!!!;+###########&******$#+++######$******&$+++++%**+....***###$!!!!!!!",
"!!!-#############%********%#++##+++#&*******&&$+**$.....***###*!!!!!!!",
"!!!-###############$&********%#+...+#$*********$**@.....***###=!!!!!!!",
"!!!)+##################$&*******%+..+##*******&$**+.....&**###=!!!!!!!",
"!!!!%#####################&******&+..+#$******%**&.....+$**###=!!!!!!!",
"!!!!!#######################&**&##++..+#&********#.....+#**###=!!!!!!!",
"!!!!!,+###########++++#######$*####*&..+#********+......+**###$!!!!!!!",
"!!!!!!-$+#####+++@@+....++#########*!*.+#%******$........&&###+!!!!!!!",
"!!!!!!!!,%$++*;!!!!!;%....++#######*!!'++#&*****+........%&###+&'!!!!!",
"!!!!!!!!!!!!!!!!!!!!!!!=@...+#####+-!!!'@#$****$........&%%####++###$-",
"!!!!!!!!!!!!!!!!!!!!!!!!!,$.+#####@)!!!!;+#***$.........=%&####&#####+",
"!!!!!!!!!!!!!!!!!!!!!!!!!!!-+####+;!!!!!!%+#$+..........;%*$#$**#+++#+",
"!!!!!!!!!!!!!!!!!!!!!!!!!!!!*++++-!!!!!!!)$+...........$-&****$+....++",
"!!!!!!!!!!!!!!!!!!!!!!!!!!!!!-&&,!!!!!!!!!)%$$%%%$%$$--!=***&+.......+",
"!!!!!!!!!!!!!!!!!!!!!!!!!!!!!!!!!!!!!!!!!!!!!!!!!!!!!!!!-$%$.........-",
"!!!!!!!!!!!!!!!!!!!!!!!!!!!!!!!!!!!!!!!!!!!!!!!!!!!!!!!!!;+.......@$,!"};
