/* XPM */
static char * gdisp_gdispAnimLogo9[] = {
"70 53 16 1",
" 	c None",
".	c #000000",
"+	c #527B52",
"@	c #8CA58C",
"#	c #94AD94",
"$	c #94BD94",
"%	c #ADC1AD",
"&	c #B5D6B5",
"*	c #BDD6BD",
"=	c #CECECE",
"-	c #D6E7D6",
";	c #E7EFE7",
">	c #E7F7E7",
",	c #EFEFEF",
"'	c #F7F7F7",
")	c #F7FFF7",
"                                        ***$$$$$                      ",
"                                       *****$$$$$$                    ",
"                                     ***$****$$$$$$                   ",
"                                     **$$$%%&&&&&%%&=;                ",
"               %%%%%%               **$%&************%%-              ",
"              %%****%%              *%&****************&%;            ",
"              %******%             @%&*******************%*'          ",
"             %%******%%            @&**********************%'         ",
"            %%$*******%           @%************************%'        ",
"            %$$$******%           @%*************************%'       ",
"           -%$$$******%          @$%***************************       ",
"           %$$$$*&&***%      @@@@@$%**************************&-      ",
"           %$$$$******%     #%$%$@@$%**************************%      ",
"           %$$$$$*****%  @#@#*&%$$$$$************&$%**********&%;     ",
"           %$$$$$$****% @%==%%%&*&%%%************$$%**********%%;     ",
"           %$$$$$$***%%=@=>>-==%#%%****&$$&*****&$$$**********$%;     ",
"           -%$$$$$**;%%=@->>>>;=%=%%%&***$%$$%&*&$$@%%%******&$%;     ",
"            %$$$$$*$-%==%->>>>;==%=-=%%&****#$$*&@%===%******%$%;     ",
"            %%$$$$$$%%=@%=>>>>-=%->>>-=%%&**%@@%%%%#%%%*****%$$%;     ",
"            -%$$$$$$$%@#%;>>+*-==->>>>>==%&*%@%=%#@$*%%****%$$$%;     ",
"             -%$$$$$$%@@%;++++-%->>>>>>>-=%%%=%#@$$$*%%***%$$$&%'     ",
"       )     @%%%$$$%%+@=%-@@-=%->>>>>>>>-=%%%@$$$$$*%#**%$$$$%-      ",
"      ;&%&&%$+++%%%%+++@%%%--=%@=++>>>>>>;=%*&$$$$$$&***%$$$$%%       ",
"     -%******&$@@+++++++@%=%%=#@%#++%>>>>-=%*%$$$$$$$%&%$$$$%%'       ",
"    )%****&%$$$$%@++++++@%%%=#@$#%&%>>>>>==%*$$$$$$$$$$$$$$%*'        ",
"    =****$$$$$$$$$@++++@***#@@$$@%%>>>>,>==%*$$$$$$$$$%%%%$#)         ",
"   )%***%$$$$$$$$$$@+++****$$$$$$#%=>>>>>=%%%$$$$$$$%%***$$@$;        ",
"   -&**%$$$$$$$$$$$$@@@%&%$$$$$$$@%%=>>>>%%%$$$$$$$%*****&%$$$        ",
"   =*&$$$$$$$$$$$$$$$$@@$$$$$$$$$@@%%%%*%%%&$%&&%%%%*&*****$$$*       ",
"   %$$$$$$$$$$$$$$$$$$$@$$$$$$$$$$$%%%%%%%*&&%*;  %********%$$$       ",
" )=$$$$$$$$$$++@@@$$$$$$$$$$$$$$$$$$%&%%&**%&'    %********%$$@       ",
"  =$$#$$$$$$+++++@@$$$$$$$$$$$$$$$$$$$$$$*&@     )%********&$$@       ",
"  ##$@$$$$@@++++++@@$$$$$$$$$$$$$$$$$$$$%*@@)    -&********&$$@       ",
"  #=$$$$$$$@@++++++@$$$$$$$$$$$$$$$$%%&**$@+;    %**&$%****%$$@       ",
"  #%$$$$$$$$$@++++++@$$$$$$$$$$$%&*******@+++%' ;%**@+%%***$$$@       ",
"  =$$$$$$$$$$@@@#$$@+@$$$$$$$$$$%********@++++@%&**&++*%***$$$@       ",
"   $$$$$$$$$$$$$$$@$$@@$$$$$$$$$$%*******%@+++++$**#++*****.......    ",
"  ;@$$$$$$$$$$$&****&$$$$@@@$$$$...******&%@@@@@%**@++****........    ",
"  -$$$$$$$$$$$$$&******%$$$$@@$.....&*******&&%@**%+++***.........    ",
"  -$$$$$$$$$$$$$$%********%$$$.......%*********%**#+++**..........    ",
"   )@$$$$$$$$$$$$$$%&********%.......$$*******&%**@+++*****$......    ",
"    %$$$$$$$$$$$$$$$$$$%&*****...$...@$%******%**&++++*%***$......    ",
"     $$$$$$$$$$$$$$$$$$$$$&***...$...+@$&********$++++*%***$......    ",
"     ,@$$$$$$$$$$$$$$$$$$$$$&*...$...++@$********@@@@%%%***$......    ",
"      -%@$$$$$$$$$@@@@$$$$$$$%...$...*+@$%*****@@@********&$......    ",
"        ,%%@@*@@@##@++++@@$$$$...$... '@@$&****@@*********$$......    ",
"                    ;%++++@@$$.......  '#$%***@@********$$$$......    ",
"                       =#+++@$.......   ;@$***@@$****$$$$$$$......    ",
"                         ,%+@$$.....     %@$%@+@$$$$$$$$$$$@......    ",
"                           -@$$$...      )%@+++@@@$$$$$$$$@@......    ",
"                            *@@@@-        )%%%%%%@+$$$$$@@  ......    ",
"                             -&&,                 +++++++   ......    ",
"                                                    ++++              "};
