/* XPM */
static char * gdisp_doneLogo[] = {
"10 11 17 1",
" 	c #000000",
".	c None",
"+	c #C60000",
"@	c #FF0000",
"#	c #FFFFFF",
"$	c #FFFFFF",
"%	c #FFFFFF",
"&	c #FFFFFF",
"*	c #FFFFFF",
"=	c #FFFFFF",
"-	c #FFFFFF",
";	c #FFFFFF",
">	c #FFFFFF",
",	c #FFFFFF",
"'	c #FFFFFF",
")	c #FFFFFF",
"!	c #FFFFFF",
"@.......@@",
"@@.....@++",
"@+@...@+..",
"@+++.@+...",
".+++@+....",
"..++++....",
"..@++++...",
".@+.++++..",
"@+...++++.",
"@.....++++",
"+........."};
