/* XPM */
static char * gdisp_redBall[] = {
"12 12 17 1",
" 	c None",
".	c #4F0015",
"+	c #62001E",
"@	c #890027",
"#	c #811B39",
"$	c #B70033",
"%	c #BF1647",
"&	c #E00142",
"*	c #FF0852",
"=	c #CE426B",
"-	c #FF296F",
";	c #CE637F",
">	c #C67B90",
",	c #FF8CD6",
"'	c #FFA5EF",
")	c #BDBDBD",
"!	c #C6BDBD",
"            ",
"   >=%%=>   ",
"  ;&***&$;  ",
" >&**-*&$@> ",
" =**,'*&$@# ",
" %**--&$@@+ ",
" %&&&&$@@++ ",
" =$$$$@@+.# ",
" >@@@@++..= ",
"  ;+++...#  ",
"   >#++#=   ",
"            "};
