/* XPM */
static char * gdisp_blueBall[] = {
"12 12 17 1",
" 	c None",
".	c #000052",
"+	c #000063",
"@	c #00007B",
"#	c #100D8A",
"$	c #0200B7",
"%	c #0404CE",
"&	c #0200EC",
"*	c #110BF6",
"=	c #4242CE",
"-	c #6D6AB8",
";	c #3131FF",
">	c #6763CE",
",	c #8CA5FF",
"'	c #BDBDBD",
")	c #BDBDC6",
"!	c #A5C6FF",
"            ",
"   -=%%=-   ",
"  >%&&*&%>  ",
" -%&*;*&%#- ",
" =&*,!*%$## ",
" %**;;%$#@. ",
" %&&&%$#@+. ",
" =$$$$#@..# ",
" -###@@+..= ",
"  >@@....#  ",
"   -#..#=   ",
"            "};
