/* XPM */
static char * gdisp_yLogo[] = {
"12 12 2 1",
".	c None",
"+	c #BDFFFF",
"+++.....+++.",
".+++....+++.",
".+++...+++..",
"..+++..+++..",
"...++..++...",
"....++++....",
"....++++....",
"....+++.....",
"....+++.....",
"....++......",
"...++.......",
"...++......."};
