/* XPM */
static char * gdisp_resLogo[] = {
"64 64 17 1",
" 	c #000000",
".	c None",
"+	c #181818",
"@	c #252525",
"#	c #34312F",
"$	c #5A544D",
"%	c #71695F",
"&	c #807669",
"*	c #827E78",
"=	c #A59986",
"-	c #CFBA9F",
";	c #D8CFC1",
">	c #F0E1CA",
",	c #EDE8DF",
"'	c #FAF5ED",
")	c #FFFBF7",
"!	c #FFFFFF",
"................................................................",
"................................................................",
"................................................................",
"...........****&&&&&&&&&%%%%%%$$$$$$$$$%+.......................",
"...........*-----------------========*$#$*#.....................",
"...........*-,,,,,,,,,,,,,,,,,,,,;;;-==%==$.....................",
"...........*-,!!!!!!!!!!!!!!!!!))',,;;-**-=$....................",
"...........*-,!!!!!!!!!!!!!!!!!!))',,;;==;-=#...................",
"...........&-,!!!!!!!!!!!!!!!!!!!))',,;;*,;-*@..................",
"...........&-,!!!!!!!!!!!!!!!!!!!!))',,;%',;-*@.................",
"...........&-,!!!!,=&=,!!!!!!!!!!!!))',,$!',;-*#................",
"...........&-,!!!!=*)*=!!!!!!!!!!!!!))',$!!',;-*@...............",
"...........&-,!!!!*&!**!!!!!!!!!!!!!!))'$,!!',;-=#..............",
"...........&-,!!!!**!*&!!!!!!!!!!!!!!!))$,,!!',;-=@.............",
"...........&-,!!!!**!**!!!!!!!!!!!!!!!!)$;,,!!',;-=$............",
"...........&-,!!!!=*!*=!!!!!!!!!!!!!!!!!$+++++$$%**%%...........",
"...........&-,!!!!,=&=,!!!!!!!!!!!!!!!!)),;;;--=*%%$.$..........",
"...........&-,!!!!!!!!!!!!!!!!!!!!!!!!!!)',;;;-==**$#%..........",
"...........&-,!!!!!!!!!!!!!!!!!!!!!!!!!!!',;;;;-==*%$$..........",
"...........&-,!!!!!!=*!!!!!!!!!!!!!!!!!!!)',;;;;-==*$$..........",
"...........&-,!!!!!***!!!!!!!!!!!!!!!!!!!)',,;;;;-=*%#..........",
"...........&-,!!!!!!**!!!!!!!!!!!!!!!!!!!))',,;;;;-=&#..........",
"...........&-,!!!!!!**!!!!!!!!!!!!!!!!!!)))'',,;;;-=*#..........",
"...........&-,!!!!!!**!!!!!!!!!!!!!!!!!)))''',,;;;-=*#..........",
"...........&-,!!!!!!**!!!!!!!!!!!!!!!!)))'''',,>;;;=*#..........",
"...........&-,!!!!!****!!!!!!!!!!!!!!)))''''',,>;;;-=#..........",
"...........%-,!!!!!!!!!!!!!!!!!!!!!!)))'''''',,>;;;-=#..........",
"...........%-,!!!!!!!!!!!!!!!!!!!!!)))'''''',,,>;;;-=#..........",
"...........%-,!!!!,=&=,!!!!!!=*!!!)));=%*>,,,,,>;;;-=#..........",
"...........%-,!!!!=*)*=!!!!!***!!)))'=*,*=,,,,>>>;;-=#..........",
"...........%-,!!!!*&!**!!!!!!**!)))''*%'&&,,,,>>>;;-=#..........",
"...........%-,!!!!**!*&!!!!!!**)))'''&%'&%,,,,>>>;;-=#..........",
"...........%-,!!!!**!**!!!!!!**))''''*%,%&,,,>>>>;;-=#..........",
"...........%-,!!!!=*!*=!!!!!!*&)'''''=&,&=,,>>>>>;;-=#..........",
"...........%-,!!!!,=&=,!!!!!*&**''''';=%=;,>>>>>>;;-=#..........",
"...........%-,!!!!!!!!!!!!!)))'''''',,,,,,>>>>>>>;;-=#..........",
"...........%-,!!!!!!!!!!!!)))'''''',,,,,,>>>>>>>>;;-=#..........",
"...........%-,!!!!!!!!!!!)))''*;-;-;-;-;-;-;-;-;-;-;-;-;-;-*....",
"...........%-,!!!!!!=*!!)));=%*;''''!''''''''''''''''''''';#....",
"...........%-,!!!!!***!)))'=*,*;,!!!!!!!!!!!!!!!!!!!!!!!!!*#....",
"...........%-,!!!!!!**)))''*%'*;'!!!!!!!!!!!!!!!!!!!!!!!!!*#....",
"...........$-,!!!!!!**))'''&%'*;,!!!!!!!!!!!!!!!!!!!!!!!!!*#....",
"...........$-,!!!!!!*&)''''*%,*;,!$*****,!-$*****!,%**%$*!*#....",
"...........$-,!!!!!)*&'''''=&,*;'!#!!!!;$!;*!!!!!!$;!!!!;'*$....",
"...........$-,!!!!)*&&*'''';=%*;,!#!!!!,$!;*'!!!!!$,'!!!'!*#....",
"...........$-,!!!)))'''''',,,,*;,!#****$;';@***;,!,****%,!*#....",
"...........$-,!!)))'''''',,,,,*;,!#!!!#,'';*''''!!!!!!!,#!*#....",
"...........$-,!!)))'''''',,,,,*;'!#!!!;$!';*,!!!!!,!!!!!#!*#....",
"...........$-,!)))'''''',,,,,**;,!#!!!!$;,;*,!!!,,$;'!!;%!*#....",
"...........$-,)))'''''',,,,,&&*;,!=!!!!;*';******,,*$*%='!*#....",
"...........$=,))'''''',,,,,,>&*;'!!!!!!!!',,''!!!!'!!!!'!!*#....",
"...........$=,)'''''',,,,,,>>&*;,!!!!!!!!!!!!!!!!!!!!!!!!!*#....",
"...........$=,'''''',,,,,,>>>&*;,!!!!!!!!!!!!!!!!!!!!!!!!!*#....",
"...........$=,''''',,,,,,>>>>%*;,!!!!!!!!!!!!!!!!!!!!!!!!!*#....",
"...........$=,'''',,,,,,>>>>%%*;'!!!!!!!!!!!!!!!!!!!!!!!!!*#....",
"...........$=>''',,,,,,>>>>>>>**##########################$#....",
"...........$=>'',,,,,,>>>>>>>>#..+.+.+.+.+.+.+.+.+.+.+.+........",
"...........$=>',,,,,,>>>>>>>>>>;;;;;;;--------------=#..........",
"...........$=;',,,,,,>>>>>>>>>>;;;;;;;--------------=#..........",
"...........$=;;;;;;;;;;;;;;-------------------------=#..........",
"...........$=-------================================&#..........",
"...........@##########################################..........",
"................................................................",
"................................................................"};
