/* XPM */
static char * gdisp_yellowBall[] = {
"12 12 17 1",
" 	c None",
".	c #424A00",
"+	c #4E5200",
"@	c #676903",
"#	c #848400",
"$	c #909800",
"%	c #A5AD00",
"&	c #B1B900",
"*	c #9A9A22",
"=	c #CFD201",
"-	c #F3F502",
";	c #F0F214",
">	c #DEDE47",
",	c #BDBDBD",
"'	c #C6C67B",
")	c #C6C6BD",
"!	c #FFEB98",
"            ",
"   '>==>'   ",
"  '=----='  ",
" '=-;;--=$' ",
" >--!!;=&$# ",
" =--;;=&$#+ ",
" ==-==&$#@+ ",
" >&&&%$#+.@ ",
" '$$$#@@..* ",
"  '@@+...*  ",
"   '@++@*   ",
"            "};
