/* XPM */
static char *gdisp_expandedNode[] = {
"16 13 16 1",
". c #000000",
"+ c #040400",
"@ c #6D6A2C",
"# c #909248",
"$ c #9C9724",
"% c #9B9744",
"& c #D5D26D",
"* c #E5D681",
"= c #F9E087",
"- c #FFFD85",
"; c #FFFB98",
"> c #FFFBA4",
", c #FFFCB7",
"' c #FFFFD2",
") c #FFFFEB",
"! c None",
"!!!###%#!!!!!!!!",
"!!#,,>,,#!!!!!!!",
"!#,>;>;>,##%#%#!",
"!#,--;;;;;>>>;&+",
"!#>;--;;---;;;&+",
"###$$$$$$$$%&;&+",
"#',;;;;;*;*&+&&+",
"#',>;>*->=>&+&&+",
"!#,;>;,>=,==$+#+",
"!#,>;*>=>==*&+#+",
"!!%>*>*-=*=*&%++",
"!!####%%%%%%%#++",
"!!!+++++++++++++"
};
