/* XPM */
static char * gdisp_stubLogo[] = {
"64 64 17 1",
" 	c #1E1B1E",
".	c #1E1B1E",
"+	c #373C2F",
"@	c #5D5A5A",
"#	c None",
"$	c #44830A",
"%	c #537B2C",
"&	c #5FC900",
"*	c #67B919",
"=	c #6B686D",
"-	c #757878",
";	c #949193",
">	c #B3B1B1",
",	c #D0D0CB",
"'	c #E8E6E6",
")	c #F3F3F7",
"!	c #FFFFFF",
"################################################################",
"################################################################",
"################################################################",
"################################################################",
"################################################################",
"################################################################",
"################################################################",
"################################################################",
"################################################################",
"################################################################",
"###################################################@############",
"############!!!!!!!!!!!!!!))))))))))'''''''''''',,';@###########",
"############!!!!!!!!!!!!!))))))))))'''''''''''',,,,;############",
"############!!!!!!!!!!!!))))))))))'''''''''''',,,,,;############",
"############!!!!!!!!!!!!!!!!!!!)))))))''''''''',,,,;############",
"############!>@+++++++++++++@@@@@@@@@@@@@@@@@@@+--,;############",
"############!>@>'',>>;;--=@@@++++++++++++++++++@@-,;############",
"############!>='),,>;--#@+++....................--,;############",
"############!>=,,&*--=@@++......................--,;############",
"############!>->>*&&&%+++.......................--,;############",
"############!>-;;-#%&&&$+.......................--,;############",
"############!>--=@@++&&&+.......................--,;############",
"############!>-=@+%*&&*$........................--,;############",
"############!>-@+&&&$+..........................--,;############",
"############!>-@.&$.............................-->;############",
"############!>-+........+$$$$$$+................-->;############",
"############!>-+........+$$$$$$+................-->;############",
"############!;-+................................-->;############",
"############!;-+................................-->;############",
"############!;-+................................-->-############",
"############!;-+................................-->-############",
"############!;-+................................-->-############",
"############!;-+................................-->-############",
"############!;-+................................-->-############",
"############!;-+................................-->-############",
"############);-+................................-->-############",
"############);-+................................-->-############",
"############);-+................................--;-############",
"############);=+...............................+=-;-############",
"############);;@+++++++++++++++++++++++++++++++@-=;-############",
"############''-;;;;-----------------------------=-;=############",
"############'''''''''''',,,,,,,,,,,>>>>>>>>>>>;;;;;=############",
"############''''''''',,,,,,,,,,,,>>>>>>>>>>>>;;;;;;=############",
"############'''''''',,,,,,,,,,,,>>>>>>>>>>>>>;;;;;;=############",
"############)'''''''',,,,,,,,,,,>>>>>>>>>>>>;;;;;;;@############",
"############@=#========###############@@@@@@@@@@@@@@############",
"##############+@@+@@@@@@@@############@@@@@@@@+@@+##############",
"####################@#@@;;------------;;-...+###################",
"###################+@@@@+#;;;;;;;;;;;;-+....+###################",
"###################.@@@+++++@@@--=@@+........###################",
"###################+@+++++++++...............@##################",
"###################.+++++++++++..............+##################",
"###################+@@++++++++++++++++.......@##################",
"################################################################",
"################################################################",
"################################################################",
"################################################################",
"################################################################",
"################################################################",
"################################################################",
"################################################################",
"################################################################",
"################################################################",
"################################################################"};
