/* XPM */
static char * gdisp_greenBall[] = {
"12 12 10 1",
" 	c None",
".	c #006300",
"+	c #00FF00",
"@	c #218C21",
"#	c #298C52",
"$	c #31CE31",
"%	c #5ABD9C",
"&	c #9CFF9C",
"*	c #BDBDBD",
"=	c #C6C6C6",
"            ",
"   %$$$$%   ",
"  %+++++$%  ",
" %$++$++$@% ",
" $++&&++$@@ ",
" $++$$$$@.. ",
" $+++$@@... ",
" $$$$@@...@ ",
" %@@@.....# ",
"  %......#  ",
"   %@..@#   ",
"            "};
