/* XPM */
static char * gdisp_cyanBall[] = {
"12 12 17 1",
" 	c None",
".	c #004A46",
"+	c #005D5A",
"@	c #08736F",
"#	c #048E8B",
"$	c #00BAB8",
"%	c #08CECA",
"&	c #01E5E2",
"*	c #0AFFFD",
"=	c #31ADAD",
"-	c #62B1B1",
";	c #21FFFF",
">	c #4AE6E2",
",	c #8CFFE7",
"'	c #A5FFDE",
")	c #BDBDBD",
"!	c #BDC6C6",
"            ",
"   ->%%>-   ",
"  -%***&%-  ",
" -%**;*&%#- ",
" >**,'*%$## ",
" %**;;%$##+ ",
" %&&&%$##++ ",
" >$$$$##+.@ ",
" -####@+..= ",
"  -@@+...#  ",
"   -@++@=   ",
"            "};
