/* XPM */
static char * gdisp_sheetLogo[] = {
"147 110 16 1",
" 	c #63615D",
".	c #908D8A",
"+	c #AEABA8",
"@	c #BDB5AD",
"#	c #C0BBB6",
"$	c #CAC6C1",
"%	c #CECEC6",
"&	c #D2CECA",
"*	c #D6D3D0",
"=	c #DED6D6",
"-	c #DEDED6",
";	c #E6E3E1",
">	c #EFEFE7",
",	c #EFEFEF",
"'	c #F7F7F7",
")	c #FFFFFF",
"=-=-*-=-*-=-*-=-*-=-*-=-*-=-*-=-*-=-*-=-*-=-*-=-*-=-*-=-*-=-*-=-*-=-*-=-*-=-*-=-*-=-*-=-*-=-*-=-*-=-*-=-*-=-*-=-*-=-*-=-*-=-*-=-*-=-*-=-*-=-*-=-*-=",
"-=--;--;-;--;--;-;--;--;-;--;--&;--;-;--;--;-;--;--;-;--;--;-*-;--;-;--;--;-;--;--;-;--;--*-;--;--;-;--;--;-;--;--;-;--;&-;-;--;--;-;--;--;*%%%%&&-",
"=->;-;;;-;;;-;;;-;;;-;;;-;;;-;-.;;;;-;;;-;;;-;;;-;;;-;;;-;;;=.;;;;-;;-;;;;-;;-;;;;-;;-;;;;.-;;-;;;;-;;;-;;;-;;;-;;;-;;;-.;;;-;;;;-;;-;;;;-;*     $-",
"--;=-=-*-=-*-=-*-=-*-=-*-=-*-=$.--*-=-*-=-=-=-*-=-=-=-*-=-=-$.--*-=-*-=-*-=-*-=-*-=-*-=-*-.&=-=-*-=-*-=-=-*-=-*-=-*-=-*=.*-*-=-*-=-*-=-*-=-* @-.#-=",
"=;--*-=-=-*-=-=-=-*-=-=-=-*-=-$.--=-=-=-*-*-=-%=-*-*-=-=-*-*%.-=-=-*--=-=-*#+-=-=-*--=-*-=.%-*-=-*-=-=-*-@#--*-=-*--*--*.**--*--=-*--=+#=-** %- #-=",
"--;=--*-*--=-*--*--=-*--*--=-=$.-=-*-*--=-=-*$ &--=-*--*--=-$.--*-=--*-*--= #.--*--=-*--=*.%-=-*--=-*--=+++*-=-=--=-=-**.&--=-=-*--=-= ++*-* -=+.--",
"=-;-*--=-=-*--*--=-*--*--=-*--$.--=--=-*--*--...*-*--*--=*-=$.-=--*-=-=-*-- .+-*--=-*--=--.%-*--=-*--*-*.**-*--*-=-*-=-*.*-*-=-*-=-*--.-.*-*    .*-",
"--;=-=-*--*--=-=-*--=-=-*-*--*$.-=-*--*--*-=*.%.*--=-=-*---*%.--*--*-=-*--= +.;-=-*--=-*-*.%=-=-*--*--=-++.--=--*-*--*-* ;--*-*--*--*- ++*-* '>>.&-",
"=;--=-*--*-=-*--*-=-*-*--=-=-=$.--*--*-=--=--%*%-*-=-*--=-*-$.-=-=--=*--=--$#--*--=-*-=-=*.%-=-*--=-=-*-*#%-*-*--=-=--=-.*-=--=-=-=--=##*--*.**- -=",
"--;=-*--=-=-*--*--*-=--=-*--*-$.--=-=-=-*-=-*--=-=-*--=-*--=%.-=-*-*---*-*---=-=-*-=-=-*--.%=-*--*-=-*---*-*--=-*-=-*-**.*--*-=-*--*--*--*-* ;-- --",
"=*+............................ +............................ ............................ ............................. ..................-.*-* --",
"-*%%$%%%$%%%%$%%%$%%%$%%$%%$%$%+$$$$$$$$$$$$$$$$$$$$$$$$$$$$$#%%$%$$$$$$$$$$$$$$$$$$$$$$$$#$%$%$$$$$$$$$$$$$$$$$$$$$$%$$#%%$$$$$$$$%$$$$%$%* ;*- --",
"--;=-*-=-*-*-=-*-=-*-=-*-=-=-=%.,'')')')')')')'')')')')')')');''')')')')')')'')')')')')''),''')')')')')')')')')')')')')';'')')')')')')')')'*.*-- ;*",
"=;--=-=*--=-=-*-=-=-=-=-=-*--*$.'))))))))))))))))))))))))))));)))))))))))))))))))))))))))),')))))))))))))))))))))))))))),'))))))))))))))))'* ;*- --",
"--;=-*---*-=-*-$.$*-*--*-*--*-$ )))))))))))))))))))))))))))));)))))))))))))))))))))))))))),'))))))))))))))))))))))))))));)))))))))))))))))'-.*-- --",
"=-;-=-=-=-=-*--.*.-*--*---=-=-%.'))))))))))))))))))))))))))));)))))))))))))))))))))))))))),'))))))))))))))))))))))))))));)))))))))))))))))'* #+@ --",
"--;=-*-*-*--=-*.*.*--=-=-*-=-*$.'))))))))))))))))))))))))))));)))))))))))))))))))))))))))),'))))))))))))))))))))))))))));)))))))))))))))))'* . ..-*",
"=;--*---=-*--*-+.+--=-*--=-*--$.,))))))))))))))))))))))))))));)))))))))))))))))))))))))))),'))))))))))))))))))))))))))));)))))))))))))))))'* +#@@*-",
"--;=--*-=--*--=----*-=-*-*--*-$ )))))))))))))))))))))))))))));)))))))))))))))))))))))))))),'))))))))))))))))))))))))))));)))))))))))))))))'* @@@@-*",
"=-;-*-=-*-=-=-*-=-*--*--=-=--*%.'))))))))))))))))))))))))))));)))))))))))))))))))))))))))),'))))))))))))))))))))))))))));)))))))))))))))))'- +@@+--",
"-*.. . . . . . . .. . . . . .. .;;;;;;;;;;;;;;;;;;;;;;;;;;;;,*;;;;;;;;;;;;;;;;;;;;;;;;;;;;-;;;;;;;;;;;;;;;;;;;;;;;;;;;;;-;;;;;;;;;;;;;;;;;;* @@@@*-",
"=-;=-;;-;-;-;-;-;*-;-;-;-;-;*-*.'))))))))))))))))))))))))))));)))))))))))))))))))))))))))),'))))))))))))))))))))))))))));)))))))))))))))))'- @+@@--",
"--;-=*----*---*---*-*--*---*--$.,))))))))))))))))))))))))))));)))))))))))))))))))))))))))),'))))))))))))))))))))))))))));)))))))))))))))))'* @@@@*-",
"=-;-*--*-*--*--=#---=*--=*--*-$ )))))))))))))))))))))))))))));)))))))))))))))))))))))))))),'))))))))))))))))))))))))))));)))))))))))))))))'* @@+@-*",
"--;=--*--=-=-=-+ ;*---=-*--=-*%.'))))))))))))))))))))))))))));)))))))))))))))))))))))))))),'))))))))))))))))))))))))))));)))))))))))))))))'- +@@@--",
"=;--=-=-*--*-*-;.---*-*--=-*--$.'))))))))))))))))))))))))))));)))))))))))))))))))))))))))),'))))))))))))))))))))))))))));)))))))))))))))))'* @@@@*-",
"--;=-*--*-=--=-*.-*-=--*-=--=-$.,))))))))))))))))))))))))))));)))))))))))))))))))))))))))),'))))))))))))))))))))))))))));)))))))))))))))))'* @@@+--",
"=-;-*--=-=-*--*-*--*-*--=-*-*-$ )))))))))))))))))))))))))))));)))))))))))))))))))))))))))),'))))))))))))))))))))))))))));)))))))))))))))))'- @+@@-*",
"--;=-=-*-*--=-=-*-=--=-*-=--=*%.'))))))))))))))))))))))))))));)))))))))))))))))))))))))))),'))))))))))))))))))))))))))));)))))))))))))))))'* @@@@--",
"=*.  .  .  .  .  .  .  .  .  .  ,;;;;;;;;;;;;;;;,;;;;;;;;;;;,*;;;;;;;;;;;;;;;;;;;;;;;;;;;;-;;;;;;;;;;;;;;;;;;;;;;;;;;;;,*;;;;;;;;;;;;;;;;;;* @@@+-*",
"-->,;;,;;,;;,;;,,;,;;,;;,,;,;;;.'))))))))))))))))))))))))))));)))))))))))))))))))))))))))),'))))))))))))))))))))))))))));)))))))))))))))))'- @+@@--",
"=-;=--*----*--*-**--*--*-**-*-%.'))))))))))))))))))))))))))));)))))))))))))))))))))))))))),'))))))))))))))))))))))))))));)))))))))))))))))'* @@@@*-",
"--;=-*--*-*--*--%-*--*--*----*$.'')))))))))))))))))))))))))));)))))))))))))))))))))))))))),'))))))))))))))))))))))))))));)))))))))))))))))'= @+@@-*",
"=;--*--=-=--*-=#.+*-=-*---*-*-$ )))))))))))))))))))))))))))));)))))))))))))))))))))))))))),'))))))))))))))))))))))))))));)))))))))))))))))'* @@@@--",
"--;=--=-*-*--=-*.*-*--=-*--=-=%.'))))))))))))))))))))))))))));)))))))))))))))))))))))))))),'))))))))))))))))))))))))))));)))))))))))))))))'- @+@@*-",
"=-;-=-*--=-=-*-.#*--*-*--=-*-*%.'))))))))))))))))))))))))))));)))))))))))))))))))))))))))),'))))))))))))))))))))))))))));)))))))))))))))))'* @@@@-*",
"--;=-*--*-*--=-#.$*--=-=-*--=-$ )))))))))))))))))))))))))))));)))))))))))))))))))))))))))),'))))))))))))))))))))))))))));)))))))))))))))))'* @@+@--",
"=;--*--=-=-*-*------*-=-*--*-*%.'))))))))))))))))))))))))))));)))))))))))))))))))))))))))),'))))))))))))))))))))))))))));)))))))))))))))))'- @@@@*-",
"-=#++++++++++++++++++++++++++++ )'''''''''''''''''''''''''''';'''''''''''''''''''''''''''';''''''''''''''''''''''''''''';''''''''''''''''',* @+@@-*",
"-*+++++++++++++++++++++++++++++.,,,,,,>,,,,,>,,,,,>,,,,,>,,,,-,,,,,,>,,,,,>,,,,,>,,,,,>,,,;;,,,,,,>,,,,,>,,,,,>,,,,,>,,,-,,,,,,>,,,,,>,,,,>* @@@@*-",
"=-;------------*-----*------*-%.,')))))))))))))'))))))))))))','))))))))))))))))))))))))))),'))))))))))))))))))))))))))));)))))))))))))))))'* @@+@--",
"-;;-=-*-*-*-*-=--*-*--=*-*-*;*$.'))))))))))))))))))))))))))));)))))))))))))))))))))))))))),'))))))))))))))))))))))))))));)))))))))))))))))'* @@@@*-",
"=-;*--=-=--=-*-+.#*--*---=--*-$ )))))))))))))))))))))))))))));)))))))))))))))))))))))))))),'))))))))))))))))))))))))))));)))))))))))))))))'* @@@@-*",
"--;-=*--*-*-=---++*-=-=-*-*--*%.'))))))))))))))))))))))))))));)))))))))))))))))))))))))))),'))))))))))))))))))))))))))));)))))))))))))))))'* @@+@--",
"=-;-=--*--=-*-=+*.**--*--=-=-=$.'')))))))))))))))))))))))))));)))))))))))))))))))))))))))),'))))))))))))))))))))))))))));)))))))))))))))))'= @@@@*-",
"--;*-*--=-*--=*$.$*--*;*-*--*-$.'))))))))))))))))))))))))))));)))))))))))))))))))))))))))),'))))))))))))))))))))))))))));)))))))))))))))))'* @+@@-*",
"=;---=-=*--=-*--*--*--*-=-=--*$ )))))))))))))))))))))))))))));)))))))))))))))))))))))))))),'))))))))))))))))))))))))))));)))))))))))))))))'* @@@+--",
"---%%$%%%%$%%%%%%$%%%%%%%%%$%%#.'))))))))))))))))))))))))))));)))))))))))))))))))))))))))),'))))))))))))))))))))))))))));)))))))))))))))))'- @@@@-*",
"=*..............................-;;;;;;;;;;;;;;;;;;;;;;;;;;;,*;;,;;;;;;;;;;;;;;;;;;;;;;;;;-;;;;;;;;;;;;;;;;;;;;;;;;;;;;;-;;;,;;;;;;;;;;;;;;* @+@@--",
"--;-=-=-*-*-*-*-*-*-=*-*=*-*-*%.,')))))))))))))))))))))))))));)))))))))))))))))))))))))))),'))))))))))))))))))))))))))));)))))))))))))))))'- @@@+-*",
"=;--=-*-=--=-=--=-=-*;*---=-=-$ )))))))))))))))))))))))))))));)))))))))))))))))))))))))))),'))))))))))))))))))))))))))));)))))))))))))))))'* @+@@--",
"--;=-=-=-*-=-*-=+*-*--=-*-*--**.'))))))))))))))))))))))))))));)))))))))))))))))))))))))))),'))))))))))))))))))))))))))));)))))))))))))))))'* @@@@*-",
"=;--=-*--=-*--*% $-=-*--=-=-=-$.,))))))))))))))))))))))))))));)))))))))))))))))))))))))))),'))))))))))))))))))))))))))));)))))))))))))))))'- @+@@--",
"--;=-*--*-=-*--  #*--=-*--*-*-$ )))))))))))))))))))))))))))));)))))))))))))))))))))))))))),'))))))))))))))))))))))))))));)))))))))))))))))'* @@@@*-",
"=;--=-=--*-=--=&.*-*--*-=--=-*%.'))))))))))))))))))))))))))));)))))))))))))))))))))))))))),'))))))))))))))))))))))))))));)))))))))))))))))'* @@@+--",
"--;=-*-*--*-=-*--*--*--=-*-*--$.'))))))))))))))))))))))))))));)))))))))))))))))))))))))))),'))))))))))))))))))))))))))));)))))))))))))))))'- @+@@-*",
"=-;-*---*--=-*--=--*-=-*--=-=-$ )))))))))))))))))))))))))))));)))))))))))))))))))))))))))),'))))))))))))))))))))))))))));)))))))))))))))))'* @@@@--",
"-*. . . . . . . . . . . . . . ..;;;;;;;;;;;;;;;;;;;;;;;;;;;;,*;;;;;;;;;;;;;;;>;;;;;;;;;;;;-;;;;;;;;;;;;;;;;;;;;;;;;;;;;,*;;>;;;;;;;;;;;;>;;* @@+@-*",
"=->;;;-;;;-;;;-;;;;;;;;;;;;;;;*.,')))))))))))))))))))))))))));)))))))))))))))))))))))))))),'))))))))))))))))))))))))))));)))))))))))))))))'- +@@@*-",
"--;*-*-=*-=*-*-*-**-*-*-******$.,))))))))))))))))))))))))))));)))))))))))))))))))))))))))),'))))))))))))))))))))))))))));)))))))))))))))))'* @@@@--",
"=-;-=-=---*---=$+#--*-*-------$ )))))))))))))))))))))))))))));)))))))))))))))))))))))))))),'))))))))))))))))))))))))))));)))))))))))))))))'- @@+@-*",
"--;=-*-*-=--*-=..**--=--*-*--*%.'))))))))))))))))))))))))))));)))))))))))))))))))))))))))),'))))))))))))))))))))))))))));)))))))))))))))))'* @@@@*-",
"=;--=--=-*-=-=*#+.;*--*--=-=-=%.'')))))))))))))))))))))))))));)))))))))))))))))))))))))))),'))))))))))))))))))))))))))));)))))))))))))))))'* @+@@--",
"--;=-*--*--*---+.+*--*-=-*--*-$ )))))))))))))))))))))))))))));)))))))))))))))))))))))))))),'))))))))))))))))))))))))))));)))))))))))))))))'- @@@@*-",
"=;--=-=-=-=-*-**%*--*--*--*--*%.'))))))))))))))))))))))))))));)))))))))))))))))))))))))))),'))))))))))))))))))))))))))));)))))))))))))))))'* @@+@--",
"--;=-*-*-*--=--*---*;*--=-=-=-$.'')))))))))))))))))))))))))));)))))))))))))))))))))))))))),'))))))))))))))))))))))))))));)))))))))))))))))'* @@@@*-",
"=*. . . . . . . . . . . . . . . ,,;,;,;,;,;,;,;,;,;,;,;,;,;,;-,;,;,;,;,;,;,;,;,;,;,;,;,;,;;;,;,;,;,;,;,;,;,;,;,;,;,;,;,;-,;,;,;,;,;,;,;,;,;- +@@@-*",
"--;;;;-;;;-;-;;;-;-;;;-;;;-;;;*.''')')')')')'))')')')'))'))');)'))')'))'))')')')')')'))'));'')')')'))'))'))'))'))'))')));')')')'))'))')')''* @@@+--",
"=-;-*---*--=-*-*--*-*-*-*-*-**%.,))))))))))))))))))))))))))));)))))))))))))))))))))))))))),'))))))))))))))))))))))))))));)))))))))))))))))'- @@@@-*",
"--;--=-*-*-*--*--*--=--*--*---$ )))))))))))))))))))))))))))));)))))))))))))))))))))))))))),'))))))))))))))))))))))))))));)))))))))))))))))'* @+@@*-",
"=;--=-*---=--*-+.#*-*-=-=--*-*%.'))))))))))))))))))))))))))));)))))))))))))))))))))))))))),'))))))))))))))))))))))))))));)))))))))))))))))'* @@@+--",
"--;=-*-=-*-*--*..+*-=-*--*-=--$.'')))))))))))))))))))))))))));)))))))))))))))))))))))))))),'))))))))))))))))))))))))))));)))))))))))))))))'- @@@@-*",
"=-;-*--=-=--*-=.$.*--*;*-=-*-*$.,))))))))))))))))))))))))))));)))))))))))))))))))))))))))),'))))))))))))))))))))))))))));)))))))))))))))))'* @+@@*-",
"--;=-=-*--*-=-**.*--*-*--*--=-$.'')))))))))))))))))))))))))));)))))))))))))))))))))))))))),'))))))))))))))))))))))))))));)))))))))))))))))'* @@@@--",
"=;--=-*--*-=-=-*---*---*--=-*-$ )))))))))))))))))))))))))))));)))))))))))))))))))))))))))),'))))))))))))))))))))))))))));)))))))))))))))))'- @@+@*-",
"-=$+@+@++#+++#++#++#+++#+++#+++.'''''''')'''''''')''')''')'');'')''')''')''')''')''')''')';''')''')''')''')''')''')''')';')'')''')''')'''),* @@@@--",
"-*+++++++++++++++++++++++++++++ ,,,,,,,,,;,,,,,,,,>,,;,,,>,,;-,,,>,,,;,,>,,,;,,,>,,>,,>,,;;;,,,>,,;,,,>,,>,,>,,;,,>,,,;,-,,,>,;,,>,,,;,,,>;= +@@+-*",
"=-;**-***-**-********-***-****%.''))))))))))))))))))))))))'));)))')))))))))))))))))')))')),')))))))))))')))'))))))))))));)))')))))))))))))'* @@@@--",
"--;--*------*-----------------%.'')))))))))))))))))))))))))));)))))))))))))))))))))))))))),'))))))))))))))))))))))))))));)))))))))))))))))'- @@@@*-",
"=;--=--*-*-*--*#..--*-*-*-*-*-$ )))))))))))))))))))))))))))));)))))))))))))))))))))))))))),'))))))))))))))))))))))))))));)))))))))))))))))'* @+@@-*",
"--;=-*--=---*--*.*---*--=--=-*%.'))))))))))))))))))))))))))));)))))))))))))))))))))))))))),'))))))))))))))))))))))))))));)))))))))))))))))'* @@@+--",
"=-;-=-*--*-=-*-*.-*-*--*-*-*--$.'')))))))))))))))))))))))))));)))))))))))))))))))))))))))),'))))))))))))))))))))))))))));)))))))))))))))))'- @@@@-*",
"--;=-*--=-*--=-*+----=-=--=-=-$.,))))))))))))))))))))))))))));)))))))))))))))))))))))))))),'))))))))))))))))))))))))))));)))))))))))))))))'* @+@@--",
"=;--=-=-*--=-*-*--*-*-=-*-*--*$ )))))))))))))))))))))))))))));)))))))))))))))))))))))))))),'))))))))))))))))))))))))))));)))))))))))))))))'* @@@+-*",
"---&%%%%%&%%%&&*%%*%*%%&%*%&*%$.'))))))))))))))))))))))))))));)))))))))))))))))))))))))))),'))))))))))))))))))))))))))));)))))))))))))))))'- @@@@--",
"=*............................. ,;;;;;;;;;;;;;;;;;;;;;;;;;;;,*;,;;;;;;;;;;;;;;;;;;;;;;;;;;-;;;;;;;;;;;;;;;;;;;;;;;;;;;;,*;;;;;;;;;;;;;;;;;;* @+@@*-",
"--;-*-*-**-**-*****************.'')))))))))))))))))))))))))));)))))))))))))))))))))))))))),'))))))))))))))))))))))))))));)))))))))))))))))'- @@@+--",
"=;--=-*---*---=---------------$.'')))))))))))))))))))))))))));)))))))))))))))))))))))))))),'))))))))))))))))))))))))))));)))))))))))))))))'* @+@@-*",
"--;=-=-=-*--*-*%.%=-*--*;*-=-*$.,))))))))))))))))))))))))))));)))))))))))))))))))))))))))),'))))))))))))))))))))))))))));)))))))))))))))))'* @@@@--",
"=;--=-*--=-=-=-+.+*--*--*-=-*-$ '))))))))))))))))))))))))))));)))))))))))))))))))))))))))),'))))))))))))))))))))))))))));)))))))))))))))))'- @@+@*-",
"--;=-*--*-=-*-*.*.**--*-=-*--*%.'))))))))))))))))))))))))))));)))))))))))))))))))))))))))),'))))))))))))))))))))))))))));)))))))))))))))))'* @@@@-*",
"=;--=-=--*-=--*+.+*--=-=-*;*--$.'))))))))))))))))))))))))))));)))))))))))))))))))))))))))),'))))))))))))))))))))))))))));)))))))))))))))))'* @@+@--",
"--;=-*-*--=-*--**--*-*--*-*-=-$.,))))))))))))))))))))))))))));)))))))))))))))))))))))))))),'))))))))))))))))))))))))))));)))))))))))))))))'- +@@@*-",
"=-;-*---*-*--*---*--=--*;*--*-$ )))))))))))))))))))))))))))));)))))))))))))))))))))))))))),'))))))))))))))))))))))))))));)))))))))))))))))'* @@@@--",
"-*. . . . . . . . . . . . . . . ,;;;;;;;;;;;;;;;,;;;;;;;;;;;,*;;;;;;;;;;;;;;>;;;;>;;;;>;;;-;;;;;>;;;;>;;;;>;;;;>;;;;>;;,*;;>;;;;>;;;;>;;;>;* @@@+-*",
"=->;-;-;;;-;;;-;;;;;;;-;;;;;;;*.'))))))))))))))))))))))))))));)))))))))))))))))))))))))))),'))))))))))))))))))))))))))));)))))))))))))))))'* @@@@--",
"--;=-=-=*-=-*-=*-**-**-*-****-%.'')))))))))))))))))))))))))));)))))))))))))))))))))))))))),'))))))))))))))))))))))))))));)))))))))))))))))'- +@@+-*",
"=;--=-*---*--*-*+--*---=------$ )))))))))))))))))))))))))))));)))))))))))))))))))))))))))),'))))))))))))))))))))))))))));)))))))))))))))))'* >;-+*-",
"--;=-*--*--*--=.#.--*-*-*-*-=*%.'))))))))))))))))))))))))))));)))))))))))))))))))))))))))),'))))))))))))))))))))))))))));)))))))))))))))))'- --.+*-",
"=-;-=-=-=-=-=-*$..*--=--=--*;*%.'')))))))))))))))))))))))))));)))))))))))))))))))))))))))),'))))))))))))))))))))))))))));)))))))))))))))))'* $- @--",
"--;=-*--*-*-=--++.--*-*--*--*-$ )))))))))))))))))))))))))))));)))))))))))))))))))))))))))),'))))))))))))))))))))))))))));)))))))))))))))))'- @.+@-*",
"=-;*--=-*--=-*-*$*--=-=-=-*-=-%.''''''''''''''''''''''''''''';''''''''''''''''''''''''''''>,'''''''''''''''''''''''''''';''''''''''''''''''*.&$%%--",
"-=******-*****************-****-****-**-**-**-**-**-**-**-**-*-*=*-**-*=*-**-**-**-**-**-**=*-**-*=*-**-**-*=*-**-**-**-*=*-**-**-*=*-**-**-------*",
"=%     . . . . . . . . . .                                                                                                                .--=-*-=-",
"-$ @%-.>------------;*;---; #+#+#+@@@+@@@@+@@@+@@@@+@@@@@+@@@@+@@@+@@@@+@@@@@+@@@@@+@@@@@+@@@+@@@@+@@@@+@@@@@+@@@@+@@@@@@@@+@@@@@+@@@@>-$@&--=-=-*-",
"=% +-- >=-*-=-*--=-*--*-*-* ##+@@@@@@@@+@@@@+@@@@+@@@@+@@@@@+@@@@@@@@+@@@@+@@@@@+@@@@@+@@@@@@@@@+@@@@+@@@@+@@@@@+@@@@+@+@@+@@@+@@@@@+@;--@%-=-*--*-",
"-$ ..+ >*-=-*--=-*--*---=-; #+#+@@+@@+@@@+@@@@@@+@@@@+@@@@+@@@@@+@@+@@@@@+@@@@+@@@@+@@@@+@@+@@+@@@@+@@@@@+@@@@+@@@@@+@@@@@@@@@@@+@@@@@;...*-=--*--=",
"=% @+...                    #+#@@@@@@@@@@@@@@+@@@@@@@@@@+@@@@@+@@@@@@@@+@@@@+@@@@+@@@@+@@@@@@@@@@@@@@@@+@@@@+@@@@@+@@@@@@+@@+@@@@@+@@@.++@%--*--*-=",
"-&$---&*---;;;-;;;;;;;;-;;-----*---*---*--*-*--*--*-*--*---*----*-*-*----*----*-----*----*--*-*-*-*-*----*----*-*----*-*-----*-*---*-%-%----*-=-=-*",
"-=-=---=-*--*--*-**-*-*-*-*-*---*---*--*---*--*--*---*---*--*-*----*--*-*--*-*--*-*--*-*--*----*-----*-*--*-*----*-*-----*-*----*---------*--=-*--*"};
