/* XPM */
static char * gdisp_gdispLogo[] = {
"70 70 16 1",
".	c #000000",
"+	c #393939",
"@	c #4E4E4E",
"#	c #676767",
"$	c #6BC66B",
"%	c #7B7B7B",
"&	c #848484",
"*	c None",
"=	c #8484FF",
"-	c #C6C6C6",
";	c #C6C6FF",
">	c #C6E7C6",
",	c #FF8C8C",
"'	c #FFCECE",
")	c #FFD6D6",
"!	c #FFFFFF",
"**********************************************************************",
"**********************************************************************",
"**********************************************************************",
"**********************************************************************",
"**********************************************************************",
"**************************************************>$******************",
"*************************************************>$$******************",
"***************!%!!*****************************>$$*******************",
"***************!*@@****************************>$$.*******************",
"***************!%..***************************>$$.********************",
"***************!*****************************>$$.*********************",
"***************!@***************************>$$.**********************",
"***************!@**************************>$$.***********************",
"***************!@************************>>$$.************************",
"***************!@**********************>>$$$.*************************",
"***************!-!*******************>>$$$..**************************",
"***************!&@*****************>>$$$..****************************",
"***************!@.***************>>$$$..******************************",
"***************!@**************>>$$$..********************************",
"***************!@************>>$$$..**********************************",
"***************!@**********>>$$$..************************************",
"***************!@********>>$$$..**************************************",
"***************!@******>>$$$..****************************************",
"***************!-!!***>$$$..******************************************",
"***************!&@@***$$..********************************************",
"***************!@..***..**********************************************",
"***************!@*****************************************************",
"***************!@@****************************************************",
"***************!@*****************************************************",
"***************!@*****************************************************",
"***************!@*****************************************************",
"***************!-!****************************************************",
"***************!&@****************************************************",
"***************!@.**********************',****************************",
"***************!@**********************'',,,**************************",
"***************!@*********************'',,,,,*************************",
"***************!@********************''..,,,,,************************",
"***************!@@@#'',*************''.**.,,,,,***********************",
"***************!@**'',,,***********''.****.,,,,,**********************",
"***************!-!'',,,,,*********''.******.,,,,,*********************",
"**********,,,*,,,,'..,,,,,*******''.********.,,,,,********************",
"*********,,,,,,,,'.**.,,,,,*****''.**********.,,,,,*******************",
"********,,,,,,,,'.****.,,,,,***''.************.,,,,,******************",
"********.........+*****.,,,,,*''.**************.,,,,,*****************",
"***************!+*******.,,,,''.*******;********.,,,,,****************",
"***************!@@*******.,,''.*******;;=********.,,,,,***************",
"***************!@**;;=****.''.*******;;===********.,,,,,**************",
"***************!-!;;===****..*******;;=====********.,,,,,*************",
"***************!%;;=====***********;;..=====********.,,,.*************",
"******=********!;;..=====*********;;.**.=====********.,.**************",
"******==*******;;.**.=====*******;;.****.=====********.***************",
"******===*****;;.****.=====*****;;.******.=====***********************",
"******====***;;.@*****.=====***;;.********.=====**********************",
"******=====@;;.!@***.**.=====*;;.*.********.=====***.*********.*******",
"******.====;;.#!@***.***.====;;.**.********..=====**.*********.*******",
"*******.==;;.@@!@!!!!!!!!.==;;.!!!!!!!!!!!!!!.=====!!!!!!!!!!!!!!!****",
"********.;;.**!***********.;;.****************.=====******************",
"*********..@@!*************..******************.===.******************",
"************!***********************************.=.*******************",
"***********!*************************************.********************",
"**********!***********************************************************",
"*********!***********...****......***.***....***.....******.**********",
"********!***********.***..**.****..**.**.****.**.****.*****.**********",
"*******!***********.********.*****.**.**.*******.****.*****.**********",
"******!************.********.*****.**.***....***.....***.......*******",
"*****!*************.***...**.*****.**.**.****.**.**********.**********",
"********************.****.**.****..**.**.****.**.**********.**********",
"*********************....***......***.***....***.**********.**********",
"**********************************************************************",
"**********************************************************************"};
