/* XPM */
static char * fleche_1_xpm[] = {
"24 24 267 2",
"  	c None",
". 	c #495440",
"+ 	c #495A3C",
"@ 	c #5A7445",
"# 	c #69894E",
"$ 	c #80A560",
"% 	c #7FA163",
"& 	c #6C8756",
"* 	c #647B51",
"= 	c #4F6041",
"- 	c #425135",
"; 	c #536E3C",
"> 	c #739952",
", 	c #87B263",
"' 	c #90BA6C",
") 	c #95BE73",
"! 	c #9AC17A",
"~ 	c #9CC17D",
"{ 	c #9FC282",
"] 	c #95B47C",
"^ 	c #728760",
"/ 	c #424E39",
"( 	c #3A472F",
"_ 	c #435833",
": 	c #5E754B",
"< 	c #7CA25C",
"[ 	c #90BB6C",
"} 	c #95BF72",
"| 	c #99C178",
"1 	c #9EC47F",
"2 	c #A2C784",
"3 	c #A7CA8B",
"4 	c #ACCD91",
"5 	c #AFCD95",
"6 	c #92A97E",
"7 	c #46503D",
"8 	c #38422F",
"9 	c #434B3E",
"0 	c #767A79",
"a 	c #727676",
"b 	c #799662",
"c 	c #92BC6F",
"d 	c #92B871",
"e 	c #94B875",
"f 	c #98BB7C",
"g 	c #9EBE82",
"h 	c #A9C98D",
"i 	c #AFCF95",
"j 	c #B4D29C",
"k 	c #B6D19F",
"l 	c #92A681",
"m 	c #495342",
"n 	c #3C4338",
"o 	c #4A4E49",
"p 	c #9C9BA5",
"q 	c #D5D4E4",
"r 	c #8B8D94",
"s 	c #698059",
"t 	c #739259",
"u 	c #586B48",
"v 	c #5C6F4B",
"w 	c #5F7150",
"x 	c #5C6B4F",
"y 	c #7F976D",
"z 	c #A1BC8B",
"A 	c #B5D19E",
"B 	c #BCD7A7",
"C 	c #BDD6AA",
"D 	c #97A888",
"E 	c #3F4639",
"F 	c #767775",
"G 	c #545757",
"H 	c #95949F",
"I 	c #D5D4E6",
"J 	c #DDDCF0",
"K 	c #93929F",
"L 	c #41483E",
"M 	c #637158",
"N 	c #9FB68C",
"O 	c #BFD9AB",
"P 	c #C5DCB2",
"Q 	c #BDD1AC",
"R 	c #7E8B74",
"S 	c #61695B",
"T 	c #818A7A",
"U 	c #767E71",
"V 	c #525255",
"W 	c #94939F",
"X 	c #D2D0E4",
"Y 	c #DAD9EE",
"Z 	c #D8D7ED",
"` 	c #B8B7CB",
" .	c #62616B",
"..	c #77876B",
"+.	c #BED4AD",
"@.	c #CADFB8",
"#.	c #CCE0BC",
"$.	c #C8DABA",
"%.	c #C6D5BA",
"&.	c #D4E2C9",
"*.	c #A5AF9D",
"=.	c #5D5C64",
"-.	c #BFBED1",
";.	c #D6D5ED",
">.	c #D4D2EC",
",.	c #BDBCD3",
"'.	c #646370",
").	c #5A6155",
"!.	c #728068",
"~.	c #BCD1AB",
"{.	c #CCE0BB",
"].	c #D0E2C1",
"^.	c #D5E5C7",
"/.	c #D9E8CD",
"(.	c #DAE7CF",
"_.	c #838A7D",
":.	c #4A4A51",
"<.	c #8F8E9E",
"[.	c #D3D1EA",
"}.	c #D3D2EB",
"|.	c #D1D0EA",
"1.	c #CFCDE9",
"2.	c #C7C5E2",
"3.	c #908EA4",
"4.	c #5B5A65",
"5.	c #606C57",
"6.	c #96A788",
"7.	c #C5DAB5",
"8.	c #CFE2BF",
"9.	c #D3E4C5",
"0.	c #D8E7CB",
"a.	c #DDEAD2",
"b.	c #D4DFCB",
"c.	c #61665D",
"d.	c #575660",
"e.	c #B4B3C9",
"f.	c #D0CFE9",
"g.	c #CDCBE8",
"h.	c #CBC9E8",
"i.	c #C7C5E5",
"j.	c #AAA8C5",
"k.	c #5C5B6B",
"l.	c #4D4C58",
"m.	c #656A60",
"n.	c #79856F",
"o.	c #C1D3B2",
"p.	c #D2E4C4",
"q.	c #D7E6CA",
"r.	c #DBE9D0",
"s.	c #DFEBD5",
"t.	c #B1BAAB",
"u.	c #4F524C",
"v.	c #7B7A8B",
"w.	c #C7C6E2",
"x.	c #CBC9E7",
"y.	c #C9C8E7",
"z.	c #C7C5E6",
"A.	c #C5C3E5",
"B.	c #B2B0D1",
"C.	c #6A697C",
"D.	c #4A4955",
"E.	c #3B4137",
"F.	c #A1AE95",
"G.	c #D5E5C8",
"H.	c #DBE9CF",
"I.	c #DCE8D2",
"J.	c #BCC4B5",
"K.	c #73776F",
"L.	c #7C7B8E",
"M.	c #C4C2E1",
"N.	c #C3C1E4",
"O.	c #C1BFE3",
"P.	c #ADABCD",
"Q.	c #5D5C6E",
"R.	c #20221F",
"S.	c #95A08B",
"T.	c #D8E6CB",
"U.	c #DEEBD3",
"V.	c #D3DECA",
"W.	c #80857C",
"X.	c #565954",
"Y.	c #605F6F",
"Z.	c #6D6C7F",
"`.	c #5D5C6C",
" +	c #78778D",
".+	c #B6B3D8",
"++	c #BCB9E1",
"@+	c #B6B4DC",
"#+	c #908EAF",
"$+	c #585768",
"%+	c #363740",
"&+	c #9BA594",
"*+	c #DBE8D0",
"=+	c #D7E2CE",
"-+	c #9BA196",
";+	c #4D504D",
">+	c #1D1D1F",
",+	c #46454F",
"'+	c #928FAF",
")+	c #B4B1DB",
"!+	c #B5B2DE",
"~+	c #AFADD8",
"{+	c #8D8AB0",
"]+	c #676582",
"^+	c #504E66",
"/+	c #4F4D64",
"(+	c #4C4B5E",
"_+	c #48475F",
":+	c #5B5978",
"<+	c #64637C",
"[+	c #A2AB9E",
"}+	c #D4E0CB",
"|+	c #9FA699",
"1+	c #4F5153",
"2+	c #23232B",
"3+	c #161618",
"4+	c #454455",
"5+	c #8A88AB",
"6+	c #ACA9D7",
"7+	c #AEABDB",
"8+	c #AAA7D7",
"9+	c #9D9AC9",
"0+	c #8F8CB9",
"a+	c #8C89B7",
"b+	c #8A87B5",
"c+	c #8A87B7",
"d+	c #9692C8",
"e+	c #757493",
"f+	c #787F77",
"g+	c #868B84",
"h+	c #4B4C52",
"i+	c #2E2D3A",
"j+	c #14141A",
"k+	c #4B4A5F",
"l+	c #8481A8",
"m+	c #A6A3D5",
"n+	c #A7A4D8",
"o+	c #A5A1D7",
"p+	c #A39FD6",
"q+	c #A19DD5",
"r+	c #9E9BD4",
"s+	c #9C98D3",
"t+	c #9A96D2",
"u+	c #7876A2",
"v+	c #5B5A73",
"w+	c #4E4D65",
"x+	c #2C2B3E",
"y+	c #46455B",
"z+	c #757399",
"A+	c #9390C2",
"B+	c #9C98CF",
"C+	c #9E9AD3",
"D+	c #9793D0",
"E+	c #918DCA",
"F+	c #7F7BB2",
"G+	c #5B5881",
"H+	c #333148",
"I+	c #2F2E3F",
"J+	c #47455F",
"K+	c #5C5A7D",
"L+	c #7673A2",
"M+	c #7976A7",
"N+	c #7774A7",
"O+	c #6F6C9D",
"P+	c #514F73",
"Q+	c #3A3954",
"R+	c #242334",
"                                                ",
"                                                ",
"                                                ",
"            . + @ # $ % & * =                   ",
"          - ; > , ' ) ! ~ { ] ^ /               ",
"        ( _ : < [ } | 1 2 3 4 5 6 7             ",
"      8 9 0 a b c d e f g h i j k l m           ",
"    n o p q r s t u v w x y z A B C D E         ",
"  F G H I J K L             M N O P Q R S T U   ",
"  V W X Y Z `  .              ..+.@.#.$.%.&.*.  ",
"  =.-.Z ;.>.,.'.            ).!.~.{.].^./.(._.  ",
":.<.[.}.|.1.2.3.4.          5.6.7.8.9.0.a.b.c.  ",
"d.e.f.1.g.h.i.j.k.l.        m.n.o.p.q.r.s.t.u.  ",
"v.w.x.y.z.A.B.C.D.            E.F.G.H.I.J.K.    ",
"L.M.i.A.N.O.P.Q.              R.S.T.U.V.W.X.    ",
"Y.Z.`. +.+++@+#+$+            %+&+*+=+-+;+      ",
"    >+,+'+)+!+~+{+]+^+/+(+_+:+<+[+}+|+1+2+      ",
"      3+4+5+6+7+8+9+0+a+b+c+d+e+f+g+h+i+        ",
"        j+k+l+m+n+o+p+q+r+s+t+u+v+w+x+          ",
"            y+z+A+B+C+s+t+D+E+F+G+H+            ",
"              I+J+K+L+M+N+O+P+Q+R+              ",
"                                                ",
"                                                ",
"                                                "};
