/* XPM */
static char * fleche_2_xpm[] = {
"24 24 267 2",
"  	c None",
". 	c #605F6F",
"+ 	c #7C7B8E",
"@ 	c #7B7A8B",
"# 	c #575660",
"$ 	c #4A4A51",
"% 	c #6D6C7F",
"& 	c #C4C2E1",
"* 	c #C7C6E2",
"= 	c #B4B3C9",
"- 	c #8F8E9E",
"; 	c #5D5C64",
"> 	c #525255",
", 	c #767775",
"' 	c #1D1D1F",
") 	c #5D5C6C",
"! 	c #C7C5E5",
"~ 	c #CBC9E7",
"{ 	c #D0CFE9",
"] 	c #D3D1EA",
"^ 	c #BFBED1",
"/ 	c #94939F",
"( 	c #545757",
"_ 	c #3C4338",
": 	c #161618",
"< 	c #46454F",
"[ 	c #78778D",
"} 	c #C5C3E5",
"| 	c #C9C8E7",
"1 	c #CFCDE9",
"2 	c #D3D2EB",
"3 	c #D8D7ED",
"4 	c #D2D0E4",
"5 	c #95949F",
"6 	c #4A4E49",
"7 	c #38422F",
"8 	c #14141A",
"9 	c #454455",
"0 	c #928FAF",
"a 	c #B6B3D8",
"b 	c #C3C1E4",
"c 	c #C7C5E6",
"d 	c #CDCBE8",
"e 	c #D1D0EA",
"f 	c #D6D5ED",
"g 	c #DAD9EE",
"h 	c #D5D4E6",
"i 	c #9C9BA5",
"j 	c #434B3E",
"k 	c #3A472F",
"l 	c #4B4A5F",
"m 	c #8A88AB",
"n 	c #B4B1DB",
"o 	c #BCB9E1",
"p 	c #C1BFE3",
"q 	c #CBC9E8",
"r 	c #D4D2EC",
"s 	c #DDDCF0",
"t 	c #D5D4E4",
"u 	c #767A79",
"v 	c #435833",
"w 	c #425135",
"x 	c #46455B",
"y 	c #8481A8",
"z 	c #ACA9D7",
"A 	c #B5B2DE",
"B 	c #B6B4DC",
"C 	c #ADABCD",
"D 	c #B2B0D1",
"E 	c #C7C5E2",
"F 	c #BDBCD3",
"G 	c #B8B7CB",
"H 	c #93929F",
"I 	c #8B8D94",
"J 	c #727676",
"K 	c #5E754B",
"L 	c #536E3C",
"M 	c #495440",
"N 	c #2F2E3F",
"O 	c #757399",
"P 	c #A6A3D5",
"Q 	c #AEABDB",
"R 	c #AFADD8",
"S 	c #908EAF",
"T 	c #5D5C6E",
"U 	c #6A697C",
"V 	c #AAA8C5",
"W 	c #908EA4",
"X 	c #646370",
"Y 	c #62616B",
"Z 	c #41483E",
"` 	c #698059",
" .	c #799662",
"..	c #7CA25C",
"+.	c #739952",
"@.	c #495A3C",
"#.	c #47455F",
"$.	c #9390C2",
"%.	c #A7A4D8",
"&.	c #AAA7D7",
"*.	c #8D8AB0",
"=.	c #585768",
"-.	c #4A4955",
";.	c #5C5B6B",
">.	c #5B5A65",
",.	c #739259",
"'.	c #92BC6F",
").	c #90BB6C",
"!.	c #87B263",
"~.	c #5A7445",
"{.	c #5C5A7D",
"].	c #9C98CF",
"^.	c #A5A1D7",
"/.	c #9D9AC9",
"(.	c #676582",
"_.	c #4D4C58",
":.	c #586B48",
"<.	c #92B871",
"[.	c #95BF72",
"}.	c #90BA6C",
"|.	c #69894E",
"1.	c #7673A2",
"2.	c #9E9AD3",
"3.	c #A39FD6",
"4.	c #8F8CB9",
"5.	c #504E66",
"6.	c #5C6F4B",
"7.	c #94B875",
"8.	c #99C178",
"9.	c #95BE73",
"0.	c #80A560",
"a.	c #7976A7",
"b.	c #9C98D3",
"c.	c #A19DD5",
"d.	c #8C89B7",
"e.	c #4F4D64",
"f.	c #5F7150",
"g.	c #98BB7C",
"h.	c #9EC47F",
"i.	c #9AC17A",
"j.	c #7FA163",
"k.	c #7774A7",
"l.	c #9A96D2",
"m.	c #9E9BD4",
"n.	c #8A87B5",
"o.	c #4C4B5E",
"p.	c #5C6B4F",
"q.	c #9EBE82",
"r.	c #A2C784",
"s.	c #9CC17D",
"t.	c #6C8756",
"u.	c #6F6C9D",
"v.	c #9793D0",
"w.	c #8A87B7",
"x.	c #48475F",
"y.	c #7F976D",
"z.	c #A9C98D",
"A.	c #A7CA8B",
"B.	c #9FC282",
"C.	c #647B51",
"D.	c #514F73",
"E.	c #918DCA",
"F.	c #9692C8",
"G.	c #5B5978",
"H.	c #656A60",
"I.	c #606C57",
"J.	c #5A6155",
"K.	c #637158",
"L.	c #A1BC8B",
"M.	c #AFCF95",
"N.	c #ACCD91",
"O.	c #95B47C",
"P.	c #4F6041",
"Q.	c #3A3954",
"R.	c #7F7BB2",
"S.	c #7876A2",
"T.	c #757493",
"U.	c #64637C",
"V.	c #363740",
"W.	c #20221F",
"X.	c #3B4137",
"Y.	c #79856F",
"Z.	c #96A788",
"`.	c #728068",
" +	c #77876B",
".+	c #9FB68C",
"++	c #B5D19E",
"@+	c #B4D29C",
"#+	c #AFCD95",
"$+	c #728760",
"%+	c #242334",
"&+	c #5B5881",
"*+	c #5B5A73",
"=+	c #787F77",
"-+	c #A2AB9E",
";+	c #9BA594",
">+	c #95A08B",
",+	c #A1AE95",
"'+	c #C1D3B2",
")+	c #C5DAB5",
"!+	c #BCD1AB",
"~+	c #BED4AD",
"{+	c #BFD9AB",
"]+	c #BCD7A7",
"^+	c #B6D19F",
"/+	c #92A97E",
"(+	c #424E39",
"_+	c #333148",
":+	c #4E4D65",
"<+	c #868B84",
"[+	c #D4E0CB",
"}+	c #DBE8D0",
"|+	c #D8E6CB",
"1+	c #D5E5C8",
"2+	c #D2E4C4",
"3+	c #CFE2BF",
"4+	c #CCE0BB",
"5+	c #CADFB8",
"6+	c #C5DCB2",
"7+	c #BDD6AA",
"8+	c #92A681",
"9+	c #46503D",
"0+	c #2C2B3F",
"a+	c #4B4C52",
"b+	c #9FA699",
"c+	c #D7E2CE",
"d+	c #DEEBD3",
"e+	c #DBE9CF",
"f+	c #D7E6CA",
"g+	c #D3E4C5",
"h+	c #D0E2C1",
"i+	c #CCE0BC",
"j+	c #BDD1AC",
"k+	c #97A888",
"l+	c #495342",
"m+	c #2E2D3A",
"n+	c #4F5153",
"o+	c #9BA196",
"p+	c #D3DECA",
"q+	c #DCE8D2",
"r+	c #DBE9D0",
"s+	c #D8E7CB",
"t+	c #D5E5C7",
"u+	c #C8DABA",
"v+	c #7E8B74",
"w+	c #3F4639",
"x+	c #23232B",
"y+	c #4D504D",
"z+	c #80857C",
"A+	c #BCC4B5",
"B+	c #DFEBD5",
"C+	c #DDEAD2",
"D+	c #D9E8CD",
"E+	c #C6D5BA",
"F+	c #61695B",
"G+	c #565954",
"H+	c #73776F",
"I+	c #B1BAAB",
"J+	c #D4DFCB",
"K+	c #DAE7CF",
"L+	c #D4E2C9",
"M+	c #818A7A",
"N+	c #4F524C",
"O+	c #61665D",
"P+	c #838A7D",
"Q+	c #A5AF9D",
"R+	c #767E71",
"                . + @ # $                       ",
"                % & * = - ; > ,                 ",
"              ' ) ! ~ { ] ^ / ( _               ",
"            : < [ } | 1 2 3 4 5 6 7             ",
"          8 9 0 a b c d e f g h i j k           ",
"          l m n o p } q 1 r 3 s t u v w         ",
"        x y z A B C D ! E F G H I J K L M       ",
"      N O P Q R S T U V W X Y Z `  ...+.@.      ",
"      #.$.%.&.*.=.  -.;.>.      ,.'.).!.~.      ",
"      {.].^./.(.      _.        :.<.[.}.|.      ",
"      1.2.3.4.5.                6.7.8.9.0.      ",
"      a.b.c.d.e.                f.g.h.i.j.      ",
"      k.l.m.n.o.                p.q.r.s.t.      ",
"      u.v.b.w.x.                y.z.A.B.C.      ",
"      D.E.l.F.G.      H.I.J.  K.L.M.N.O.P.      ",
"      Q.R.S.T.U.V.W.X.Y.Z.`. +.+++@+#+$+        ",
"      %+&+*+=+-+;+>+,+'+)+!+~+{+]+^+/+(+        ",
"        _+:+<+[+}+|+1+2+3+4+5+6+7+8+9+          ",
"          0+a+b+c+d+e+f+g+h+i+j+k+l+            ",
"            m+n+o+p+q+r+s+t+u+v+w+              ",
"              x+y+z+A+B+C+D+E+F+                ",
"                  G+H+I+J+K+L+M+                ",
"                      N+O+P+Q+R+                ",
"                                                "};
