/* XPM */
static char * fleche_3_xpm[] = {
"24 24 273 2",
"  	c None",
". 	c #16151F",
"+ 	c #2B2A3D",
"@ 	c #323046",
"# 	c #2A293B",
"$ 	c #16151E",
"% 	c #35344C",
"& 	c #474565",
"* 	c #666390",
"= 	c #7672A5",
"- 	c #7875A6",
"; 	c #7976A6",
"> 	c #636087",
", 	c #4B4965",
"' 	c #373649",
") 	c #2C2B3F",
"! 	c #4C4A6B",
"~ 	c #8D89C5",
"{ 	c #9592CF",
"] 	c #9995D2",
"^ 	c #9C98D3",
"/ 	c #9D9AD4",
"( 	c #9D99D0",
"_ 	c #9996CA",
": 	c #7F7CA6",
"< 	c #52506A",
"[ 	c #2A293C",
"} 	c #424157",
"| 	c #5B5A73",
"1 	c #6A688C",
"2 	c #9490CA",
"3 	c #A09CD5",
"4 	c #A29FD6",
"5 	c #A4A1D7",
"6 	c #A6A3D8",
"7 	c #A7A4D7",
"8 	c #9693BF",
"9 	c #5A5872",
"0 	c #25252E",
"a 	c #282736",
"b 	c #3F3F48",
"c 	c #757A76",
"d 	c #888F85",
"e 	c #696B7B",
"f 	c #928EC2",
"g 	c #8C89BA",
"h 	c #8986B5",
"i 	c #8C89B6",
"j 	c #8D8AB7",
"k 	c #9895C3",
"l 	c #A7A4D5",
"m 	c #ADAADA",
"n 	c #AEABDA",
"o 	c #9A98C0",
"p 	c #5A586F",
"q 	c #202025",
"r 	c #37383D",
"s 	c #868B82",
"t 	c #CCD6C3",
"u 	c #C4CFBC",
"v 	c #666876",
"w 	c #666386",
"x 	c #555471",
"y 	c #49485D",
"z 	c #4F4D62",
"A 	c #4C4B62",
"B 	c #62607C",
"C 	c #7C799B",
"D 	c #A9A7D1",
"E 	c #B4B1DD",
"F 	c #B5B2DD",
"G 	c #A2A0C4",
"H 	c #5F5D6E",
"I 	c #272629",
"J 	c #3F4140",
"K 	c #7A7F78",
"L 	c #CDD7C4",
"M 	c #DEEAD3",
"N 	c #C0CDB7",
"O 	c #474A4C",
"P 	c #4D4B5B",
"Q 	c #7E7C99",
"R 	c #B0AED5",
"S 	c #BBB8E1",
"T 	c #BCB9E0",
"U 	c #8E8DA9",
"V 	c #5F5E6F",
"W 	c #646374",
"X 	c #6D6C7F",
"Y 	c #72766F",
"Z 	c #BBC5B5",
"` 	c #DEEAD4",
" .	c #DBE9CF",
"..	c #BCCAB0",
"+.	c #555C50",
"@.	c #51505F",
"#.	c #9391AF",
"$.	c #BFBDE2",
"%.	c #C2C0E4",
"&.	c #C5C2E5",
"*.	c #C6C4E5",
"=.	c #C7C5E5",
"-.	c #9997AF",
";.	c #4F524D",
">.	c #A9B0A3",
",.	c #D8E3CF",
"'.	c #DCEAD0",
").	c #D8E7CB",
"!.	c #BFCFB2",
"~.	c #565E4F",
"{.	c #4C4B53",
"].	c #605F71",
"^.	c #9A98B5",
"/.	c #C3C1E3",
"(.	c #C7C5E6",
"_.	c #C8C7E7",
":.	c #CBC9E7",
"<.	c #9897AC",
"[.	c #353733",
"}.	c #878C82",
"|.	c #DCE7D3",
"1.	c #DDEAD2",
"2.	c #D4E5C6",
"3.	c #CBDDBB",
"4.	c #8F9E83",
"5.	c #676E61",
"6.	c #504F5D",
"7.	c #4B4A57",
"8.	c #9593AD",
"9.	c #C5C3E2",
"0.	c #CAC8E7",
"a.	c #CCCAE8",
"b.	c #CECCE9",
"c.	c #D0CFEA",
"d.	c #CBC9E2",
"e.	c #72717E",
"f.	c #40433E",
"g.	c #B1BAAA",
"h.	c #DAE8CE",
"i.	c #D5E5C7",
"j.	c #D0E3C1",
"k.	c #CADEBA",
"l.	c #A9BB99",
"m.	c #707D65",
"n.	c #525A4C",
"o.	c #504F57",
"p.	c #7A798A",
"q.	c #BCBBD6",
"r.	c #D3D1EB",
"s.	c #D5D3EC",
"t.	c #B3B2C6",
"u.	c #56565F",
"v.	c #757A70",
"w.	c #C8D3BF",
"x.	c #DBE9CE",
"y.	c #D6E6C9",
"z.	c #D1E3C2",
"A.	c #CDE1BD",
"B.	c #C6DBB5",
"C.	c #8A9A7D",
"D.	c #5C6555",
"E.	c #575763",
"F.	c #A09EB3",
"G.	c #D2D0EA",
"H.	c #D5D4EC",
"I.	c #D7D6ED",
"J.	c #CCCBDF",
"K.	c #83818E",
"L.	c #38373C",
"M.	c #979F90",
"N.	c #D3E1C9",
"O.	c #C9D8BD",
"P.	c #C6D6B8",
"Q.	c #CCE0BD",
"R.	c #CADFB9",
"S.	c #C7DCB5",
"T.	c #8FA180",
"U.	c #586152",
"V.	c #9695A5",
"W.	c #D5D4EA",
"X.	c #DAD9EE",
"Y.	c #D8D7EB",
"Z.	c #AAA9B8",
"`.	c #67666D",
" +	c #3A393B",
".+	c #6E7669",
"++	c #8C9584",
"@+	c #636B5D",
"#+	c #6B7563",
"$+	c #AFC1A0",
"%+	c #C6DCB4",
"&+	c #C1DAAD",
"*+	c #AEC69A",
"=+	c #758566",
"-+	c #57614E",
";+	c #3C4635",
">+	c #707177",
",+	c #D2D1E4",
"'+	c #DCDBED",
")+	c #B1B0BE",
"!+	c #5F6064",
"~+	c #616361",
"{+	c #2C3128",
"]+	c #7A896F",
"^+	c #BAD1A7",
"/+	c #BED7A8",
"(+	c #B8D3A1",
"_+	c #ABC795",
":+	c #87A074",
"<+	c #647655",
"[+	c #59674E",
"}+	c #5E724F",
"|+	c #556547",
"1+	c #6B8753",
"2+	c #6F8C59",
"3+	c #717773",
"4+	c #CCCCDB",
"5+	c #B4B3C0",
"6+	c #606263",
"7+	c #3B4237",
"8+	c #3A4134",
"9+	c #7A8B6D",
"0+	c #B0CA9B",
"a+	c #B6D39D",
"b+	c #B1D097",
"c+	c #ABCB8F",
"d+	c #A1C286",
"e+	c #9ABB7E",
"f+	c #95B978",
"g+	c #92B772",
"h+	c #93BB70",
"i+	c #87AC68",
"j+	c #6B7469",
"k+	c #7D8082",
"l+	c #51584E",
"m+	c #35402D",
"n+	c #363D2F",
"o+	c #798C69",
"p+	c #ACCA94",
"q+	c #AECE93",
"r+	c #A8CB8C",
"s+	c #A3C887",
"t+	c #9FC581",
"u+	c #9BC27B",
"v+	c #96BF74",
"w+	c #92BD6E",
"x+	c #86B063",
"y+	c #658050",
"z+	c #4C623B",
"A+	c #3A492D",
"B+	c #3E4636",
"C+	c #303A2A",
"D+	c #627454",
"E+	c #8AA674",
"F+	c #9EC082",
"G+	c #9DC280",
"H+	c #9BC17B",
"I+	c #97C076",
"J+	c #91BB6E",
"K+	c #8BB667",
"L+	c #7BA358",
"M+	c #5D7C43",
"N+	c #425830",
"O+	c #21271C",
"P+	c #435137",
"Q+	c #5E734C",
"R+	c #688253",
"S+	c #79995E",
"T+	c #85AA65",
"U+	c #709254",
"V+	c #5F7C47",
"W+	c #4F6140",
"X+	c #48553E",
"                                                ",
"                                                ",
"                  . + @ # $                     ",
"              % & * = - ; > , '                 ",
"          ) ! = ~ { ] ^ / ( _ : <               ",
"        [ } | 1 2 ^ / 3 4 5 6 7 8 9 0           ",
"      a b c d e f g h i j k l m n o p q         ",
"      r s t u v w x y z A B C D E F G H I       ",
"    J K L M N O             P Q R S T U V W X   ",
"    Y Z `  ...+.              @.#.$.%.&.*.=.-.  ",
"  ;.>.,.'.).!.~.            {.].^./.(._.:.:.<.  ",
"[.}.|.1.).2.3.4.5.        6.7.8.9.0.a.b.c.d.e.  ",
"f.g.M h.i.j.k.l.m.n.        o.p.q.b.c.r.s.t.u.  ",
"v.w.x.y.z.A.B.C.D.            E.F.G.H.I.J.K.L.  ",
"M.N.O.P.Q.R.S.T.U.              V.W.X.Y.Z.`. +  ",
".+++@+#+$+%+&+*+=+-+          ;+>+,+'+)+!+~+    ",
"      {+]+^+/+(+_+:+<+[+}+|+1+2+3+4+5+6+7+      ",
"        8+9+0+a+b+c+d+e+f+g+h+i+j+k+l+m+        ",
"          n+o+p+q+r+s+t+u+v+w+x+y+z+A+B+        ",
"            C+D+E+F+G+H+I+J+K+L+M+N+            ",
"              O+P+Q+R+S+T+U+V+W+X+              ",
"                                                ",
"                                                ",
"                                                "};
