/* XPM */
static char * fleche_4_xpm[] = {
"24 24 281 2",
"  	c None",
". 	c #555B51",
"+ 	c #919A8A",
"@ 	c #848A7E",
"# 	c #52564F",
"$ 	c #30322E",
"% 	c #686F62",
"& 	c #C6D4BC",
"* 	c #CEDAC4",
"= 	c #BCC6B4",
"- 	c #93998E",
"; 	c #5E625C",
"> 	c #484E44",
", 	c #ADBAA3",
"' 	c #DAE8CD",
") 	c #DDEAD1",
"! 	c #DDE9D3",
"~ 	c #C4CDBD",
"{ 	c #7B8077",
"] 	c #4D504C",
"^ 	c #5B6354",
"/ 	c #ABB99F",
"( 	c #D5E5C8",
"_ 	c #D9E7CC",
": 	c #DCEAD1",
"< 	c #DEEAD4",
"[ 	c #C3CEBC",
"} 	c #979D92",
"| 	c #464749",
"1 	c #292834",
"2 	c #2F342A",
"3 	c #64705A",
"4 	c #A3B495",
"5 	c #C6D9B6",
"6 	c #D0E3C1",
"7 	c #D3E5C5",
"8 	c #D7E7CA",
"9 	c #DBE9CF",
"0 	c #DEEAD3",
"a 	c #DAE5D1",
"b 	c #9DA498",
"c 	c #505255",
"d 	c #2D2C3D",
"e 	c #2C3226",
"f 	c #606D55",
"g 	c #ABC19A",
"h 	c #C5DCB2",
"i 	c #C8DEB7",
"j 	c #CDE1BC",
"k 	c #CFE2BF",
"l 	c #D3E4C5",
"m 	c #D6E6C9",
"n 	c #DAE8CE",
"o 	c #DDEAD2",
"p 	c #D5E1CC",
"q 	c #959C90",
"r 	c #4A4A5A",
"s 	c #36344C",
"t 	c #21271C",
"u 	c #617155",
"v 	c #A5BE91",
"w 	c #BBD6A6",
"x 	c #C0D9AC",
"y 	c #C5DCB3",
"z 	c #C7DBB6",
"A 	c #C8DDB7",
"B 	c #CBDEBB",
"C 	c #C4D4B6",
"D 	c #BCCAB0",
"E 	c #BECBB4",
"F 	c #C4CFBB",
"G 	c #A4AD9E",
"H 	c #5D5F69",
"I 	c #58567D",
"J 	c #252435",
"K 	c #414D37",
"L 	c #9FBB88",
"M 	c #B5D29C",
"N 	c #B7D4A1",
"O 	c #B3CC9E",
"P 	c #9BB08A",
"Q 	c #869579",
"R 	c #A2B593",
"S 	c #98A88B",
"T 	c #646E5D",
"U 	c #575E51",
"V 	c #454845",
"W 	c #5E606B",
"X 	c #6D6F7E",
"Y 	c #63627D",
"Z 	c #7B78AC",
"` 	c #4B496B",
" .	c #6D845B",
"..	c #A9CA8F",
"+.	c #B0D096",
"@.	c #B0CE98",
"#.	c #889C76",
"$.	c #5D6755",
"%.	c #5A6353",
"&.	c #6E7B64",
"*.	c #656E5E",
"=.	c #54526F",
"-.	c #8B87B7",
";.	c #9390C8",
">.	c #9490CD",
",.	c #63618C",
"'.	c #232333",
").	c #4D5E3E",
"!.	c #8FAF75",
"~.	c #A7CA8A",
"{.	c #ABCC8F",
"].	c #9DBA85",
"^.	c #5E6B53",
"/.	c #535B4E",
"(.	c #77749E",
"_.	c #9B98D1",
":.	c #9895D2",
"<.	c #807DB4",
"[.	c #262536",
"}.	c #546943",
"|.	c #94B878",
"1.	c #A2C785",
"2.	c #A6C98A",
"3.	c #7C9568",
"4.	c #46513E",
"5.	c #706E92",
"6.	c #9C99D1",
"7.	c #9A96D2",
"8.	c #8E8AC5",
"9.	c #383750",
"0.	c #698652",
"a.	c #96BC76",
"b.	c #9EC47F",
"c.	c #A2C684",
"d.	c #6C825A",
"e.	c #4A4F46",
"f.	c #747195",
"g.	c #9F9BD3",
"h.	c #9D99D3",
"i.	c #908CC6",
"j.	c #3D3B56",
"k.	c #799C5C",
"l.	c #96BF74",
"m.	c #9AC27A",
"n.	c #9DC37E",
"o.	c #6D8659",
"p.	c #737195",
"q.	c #A19ED3",
"r.	c #9F9BD4",
"s.	c #928EC7",
"t.	c #38374E",
"u.	c #627F49",
"v.	c #8CB66A",
"w.	c #95BF72",
"x.	c #98C077",
"y.	c #698254",
"z.	c #41473A",
"A.	c #504E5B",
"B.	c #55545E",
"C.	c #8683AB",
"D.	c #A4A1D5",
"E.	c #A19DD5",
"F.	c #7F7CAC",
"G.	c #272536",
"H.	c #52683F",
"I.	c #82AB5F",
"J.	c #91BC6D",
"K.	c #94BE71",
"L.	c #80A263",
"M.	c #4B5E3C",
"N.	c #4E4D59",
"O.	c #4B4953",
"P.	c #696783",
"Q.	c #A19DCB",
"R.	c #A8A4D8",
"S.	c #A19ED4",
"T.	c #6A688E",
"U.	c #262534",
"V.	c #505D45",
"W.	c #698C4C",
"X.	c #86B162",
"Y.	c #86AB66",
"Z.	c #7FA164",
"`.	c #45533B",
" +	c #5A5A66",
".+	c #676674",
"++	c #9593AC",
"@+	c #716F84",
"#+	c #68667D",
"$+	c #A29FC7",
"%+	c #AEABDA",
"&+	c #AAA6D9",
"*+	c #938FBF",
"=+	c #484660",
"-+	c #4C5743",
";+	c #51693C",
">+	c #6C8F51",
",+	c #626D5D",
"'+	c #737A74",
")+	c #6D6F72",
"!+	c #8A8997",
"~+	c #9E9DB1",
"{+	c #B0AFC8",
"]+	c #C6C4E3",
"^+	c #AAA9C6",
"/+	c #918FAB",
"(+	c #A7A4C9",
"_+	c #B5B2DD",
":+	c #B1AEDC",
"<+	c #A29FCE",
"[+	c #666484",
"}+	c #2C2B39",
"|+	c #3E502F",
"1+	c #4D6739",
"2+	c #626960",
"3+	c #BCBCC9",
"4+	c #D2D1E3",
"5+	c #D4D3E8",
"6+	c #D3D1EA",
"7+	c #CFCDE9",
"8+	c #CBC9E8",
"9+	c #C6C4E5",
"0+	c #C0BEE2",
"a+	c #BCBAE1",
"b+	c #B7B4DF",
"c+	c #A9A6D1",
"d+	c #6E6C8A",
"e+	c #3D4B31",
"f+	c #3F4A37",
"g+	c #94949C",
"h+	c #D8D7E9",
"i+	c #DCDAEF",
"j+	c #D7D5ED",
"k+	c #D2D1EB",
"l+	c #CDCCE8",
"m+	c #C9C7E7",
"n+	c #C4C1E4",
"o+	c #BFBDE2",
"p+	c #AEABD1",
"q+	c #75738F",
"r+	c #2E2E39",
"s+	c #36412D",
"t+	c #494E48",
"u+	c #9C9CA7",
"v+	c #D1D0E3",
"w+	c #D8D7ED",
"x+	c #D4D3EC",
"y+	c #CFCEEA",
"z+	c #CAC9E8",
"A+	c #C5C3E5",
"B+	c #A7A5C4",
"C+	c #6A697D",
"D+	c #35353D",
"E+	c #080809",
"F+	c #363F30",
"G+	c #515453",
"H+	c #908F9B",
"I+	c #C8C7DA",
"J+	c #D4D3EA",
"K+	c #D1D0EA",
"L+	c #CDCBE8",
"M+	c #C8C6E6",
"N+	c #8D8BA4",
"O+	c #2A292E",
"P+	c #1B1B1C",
"Q+	c #5B5E5A",
"R+	c #656468",
"S+	c #787782",
"T+	c #A2A0B2",
"U+	c #C8C7DF",
"V+	c #CCCBE7",
"W+	c #C9C7E6",
"X+	c #908EA7",
"Y+	c #2F2F37",
"Z+	c #29282C",
"`+	c #515058",
" @	c #656570",
".@	c #8F8FA1",
"+@	c #9998AF",
"@@	c #838298",
"#@	c #484855",
"              . + @ # $                         ",
"              % & * = - ;                       ",
"              > , ' ) ! ~ { ]                   ",
"              ^ / ( _ : < [ } | 1               ",
"          2 3 4 5 6 7 8 9 0 a b c d             ",
"        e f g h i j k l m n o p q r s           ",
"      t u v w x y z A B C D E F G H I J         ",
"      K L M N O P Q R S T U V W X Y Z `         ",
"       ...+.@.#.$.%.&.*.      =.-.;.>.,.'.      ",
"    ).!.~.{.].^.    /.          (._.:.<.[.      ",
"    }.|.1.2.3.4.                5.6.7.8.9.      ",
"    0.a.b.c.d.e.                f.g.h.i.j.      ",
"    k.l.m.n.o.                  p.q.r.s.t.      ",
"    u.v.w.x.y.z.      A.B.      C.D.E.F.G.      ",
"    H.I.J.K.L.M.      N.O.    P.Q.R.S.T.U.      ",
"    V.W.X.Y.Z.`.   +.+++@+  #+$+%+&+*+=+        ",
"    -+;+>+,+'+)+!+~+{+]+^+/+(+_+:+<+[+}+        ",
"      |+1+2+3+4+5+6+7+8+9+0+a+b+c+d+            ",
"        e+f+g+h+i+j+k+l+m+n+o+p+q+r+            ",
"          s+t+u+v+w+x+y+z+A+B+C+D+E+            ",
"            F+G+H+I+J+K+L+M+N+O+P+              ",
"              Q+R+S+T+U+V+W+X+Y+                ",
"                  Z+`+ @.@+@@@#@                ",
"                                                "};
