/* XPM */
static char * tnt_rotate_xpm[] = {
"47 34 373 2",
"  	c None",
". 	c #070707",
"+ 	c #0C0C0C",
"@ 	c #060606",
"# 	c #040404",
"$ 	c #010101",
"% 	c #020202",
"& 	c #050505",
"* 	c #030303",
"= 	c #090909",
"- 	c #171717",
"; 	c #080808",
"> 	c #0A0A0A",
", 	c #0F0F0F",
"' 	c #6A6A6A",
") 	c #696969",
"! 	c #121212",
"~ 	c #474747",
"{ 	c #4F4F4F",
"] 	c #505050",
"^ 	c #4D4D4D",
"/ 	c #242424",
"( 	c #303030",
"_ 	c #313131",
": 	c #2C2C2C",
"< 	c #11100F",
"[ 	c #090807",
"} 	c #12100E",
"| 	c #0D0C0A",
"1 	c #030302",
"2 	c #000000",
"3 	c #030202",
"4 	c #060505",
"5 	c #111111",
"6 	c #0E0E0E",
"7 	c #0D0D0D",
"8 	c #080809",
"9 	c #060607",
"0 	c #1A1A1A",
"a 	c #3E3D3C",
"b 	c #4A4748",
"c 	c #333030",
"d 	c #0A0A09",
"e 	c #010000",
"f 	c #000100",
"g 	c #030304",
"h 	c #101010",
"i 	c #444342",
"j 	c #646563",
"k 	c #6E6E6D",
"l 	c #656465",
"m 	c #333334",
"n 	c #070606",
"o 	c #010201",
"p 	c #181818",
"q 	c #5E5E5E",
"r 	c #7E7E7C",
"s 	c #767876",
"t 	c #666667",
"u 	c #414042",
"v 	c #0C0B0B",
"w 	c #141414",
"x 	c #646464",
"y 	c #7E7E7E",
"z 	c #767675",
"A 	c #6D6E6D",
"B 	c #4D4C4E",
"C 	c #141213",
"D 	c #797979",
"E 	c #707070",
"F 	c #666867",
"G 	c #575757",
"H 	c #1C1A1B",
"I 	c #0B0B0B",
"J 	c #292929",
"K 	c #6C6C6C",
"L 	c #6B6B6B",
"M 	c #626262",
"N 	c #585859",
"O 	c #302F2F",
"P 	c #4E4E4E",
"Q 	c #666666",
"R 	c #5C5C5C",
"S 	c #535453",
"T 	c #3F3F3E",
"U 	c #121011",
"V 	c #20201F",
"W 	c #585854",
"X 	c #5D5D57",
"Y 	c #50504C",
"Z 	c #444344",
"` 	c #211E22",
" .	c #040504",
"..	c #020201",
"+.	c #050502",
"@.	c #080802",
"#.	c #0A0A04",
"$.	c #151515",
"%.	c #131010",
"&.	c #161004",
"*.	c #2D2208",
"=.	c #605225",
"-.	c #998A3A",
";.	c #A59530",
">.	c #73672D",
",.	c #2B2928",
"'.	c #020101",
").	c #403112",
"!.	c #160D05",
"~.	c #030201",
"{.	c #211305",
"].	c #332505",
"^.	c #2F2704",
"/.	c #1A1204",
"(.	c #090703",
"_.	c #201707",
":.	c #3C2D0F",
"<.	c #695D1C",
"[.	c #8A831A",
"}.	c #858218",
"|.	c #3A360F",
"1.	c #675615",
"2.	c #844510",
"3.	c #B45C16",
"4.	c #CC6614",
"5.	c #CE7E1A",
"6.	c #CB8515",
"7.	c #B07514",
"8.	c #241810",
"9.	c #010100",
"0.	c #B87F19",
"a.	c #8B3510",
"b.	c #37190B",
"c.	c #933C0D",
"d.	c #D6660C",
"e.	c #CD8710",
"f.	c #804B0F",
"g.	c #070503",
"h.	c #1F0B05",
"i.	c #652B0F",
"j.	c #9A4917",
"k.	c #CB641B",
"l.	c #D87717",
"m.	c #CF9812",
"n.	c #D4AF11",
"o.	c #8D7116",
"p.	c #D5A518",
"q.	c #9D3012",
"r.	c #7A2316",
"s.	c #70231D",
"t.	c #66332A",
"u.	c #66381F",
"v.	c #B97914",
"w.	c #39270A",
"x.	c #010103",
"y.	c #020001",
"z.	c #BA7515",
"A.	c #D3310A",
"B.	c #AD3B13",
"C.	c #C6340F",
"D.	c #BF370E",
"E.	c #B44C14",
"F.	c #AC4D12",
"G.	c #221609",
"H.	c #020100",
"I.	c #4B260C",
"J.	c #BD5416",
"K.	c #881C0A",
"L.	c #75160D",
"M.	c #60150D",
"N.	c #512311",
"O.	c #8D4B13",
"P.	c #AA6C19",
"Q.	c #2E3010",
"R.	c #BB9618",
"S.	c #2F0F07",
"T.	c #372012",
"U.	c #332A27",
"V.	c #504B2B",
"W.	c #AD821D",
"X.	c #BB6A13",
"Y.	c #442E13",
"Z.	c #010102",
"`.	c #010001",
" +	c #8A5B10",
".+	c #872C0A",
"++	c #C51E10",
"@+	c #E5260F",
"#+	c #A2531C",
"$+	c #3C1406",
"%+	c #9F3F0C",
"&+	c #362507",
"*+	c #422C09",
"=+	c #966614",
"-+	c #311306",
";+	c #261107",
">+	c #0B0504",
",+	c #542612",
"'+	c #BE4418",
")+	c #B44E1C",
"!+	c #181808",
"~+	c #B88A1D",
"{+	c #AB5715",
"]+	c #A54816",
"^+	c #4B2C1D",
"/+	c #57401B",
"(+	c #C25F11",
"_+	c #681F0F",
":+	c #1C1009",
"<+	c #000001",
"[+	c #6E4812",
"}+	c #59320D",
"|+	c #550B08",
"1+	c #C0170B",
"2+	c #C93413",
"3+	c #1B0B03",
"4+	c #8C5212",
"5+	c #493E0C",
"6+	c #2F1003",
"7+	c #B24D13",
"8+	c #B36016",
"9+	c #A96E18",
"0+	c #0F0A03",
"a+	c #663F0D",
"b+	c #B54C0E",
"c+	c #5A120B",
"d+	c #62230E",
"e+	c #89180A",
"f+	c #A04B16",
"g+	c #584517",
"h+	c #403213",
"i+	c #A97511",
"j+	c #030100",
"k+	c #000002",
"l+	c #52380E",
"m+	c #733B0C",
"n+	c #623210",
"o+	c #963419",
"p+	c #A41815",
"q+	c #130603",
"r+	c #704B12",
"s+	c #52450D",
"t+	c #170703",
"u+	c #752814",
"v+	c #902E15",
"w+	c #CD7D18",
"x+	c #110A02",
"y+	c #5A3A0D",
"z+	c #765311",
"A+	c #050301",
"B+	c #140405",
"C+	c #100301",
"D+	c #5B490D",
"E+	c #5B5011",
"F+	c #231C0A",
"G+	c #BE8912",
"H+	c #160E04",
"I+	c #432608",
"J+	c #864B0C",
"K+	c #674210",
"L+	c #C63B0F",
"M+	c #92230E",
"N+	c #190903",
"O+	c #5F430B",
"P+	c #5B4C0D",
"Q+	c #030001",
"R+	c #0F0203",
"S+	c #120302",
"T+	c #A65F13",
"U+	c #130B03",
"V+	c #492B08",
"W+	c #8B5812",
"X+	c #150E06",
"Y+	c #51480D",
"Z+	c #5B5210",
"`+	c #2C1F0C",
" @	c #C87E11",
".@	c #382009",
"+@	c #020102",
"@@	c #311C06",
"#@	c #936314",
"$@	c #492E0B",
"%@	c #C8470E",
"&@	c #D1380D",
"*@	c #7C310B",
"=@	c #733C0A",
"-@	c #64440B",
";@	c #8F4B12",
">@	c #27190B",
",@	c #543209",
"'@	c #A36211",
")@	c #2D1D0B",
"!@	c #493B0C",
"~@	c #A77A19",
"{@	c #B76713",
"]@	c #D04C12",
"^@	c #432E10",
"/@	c #221403",
"(@	c #B77B14",
"_@	c #A96310",
":@	c #BB4D11",
"<@	c #712910",
"[@	c #CA671B",
"}@	c #D06A0D",
"|@	c #694407",
"1@	c #845517",
"2@	c #A87212",
"3@	c #C87512",
"4@	c #AB420F",
"5@	c #30130C",
"6@	c #3F210A",
"7@	c #B55414",
"8@	c #AF2E0E",
"9@	c #670D0A",
"0@	c #0B0402",
"a@	c #191104",
"b@	c #B67117",
"c@	c #B54514",
"d@	c #631E11",
"e@	c #0F0706",
"f@	c #440E05",
"g@	c #B14014",
"h@	c #5E3510",
"i@	c #020000",
"j@	c #675212",
"k@	c #C24C0E",
"l@	c #9F1809",
"m@	c #47100B",
"n@	c #171111",
"o@	c #180303",
"p@	c #380504",
"q@	c #120101",
"r@	c #0D0B05",
"s@	c #574216",
"t@	c #2A1A09",
"u@	c #291A09",
"v@	c #2B1F0B",
"w@	c #312812",
"x@	c #3F1F10",
"y@	c #0C0101",
"z@	c #C0BB6C",
"A@	c #A5A160",
"B@	c #040307",
"C@	c #A3A165",
"D@	c #BAB672",
"E@	c #B2B55D",
"F@	c #4F5037",
"G@	c #0B0909",
"H@	c #B9AE61",
"I@	c #AAA657",
"J@	c #B1AC5F",
"K@	c #B2AB68",
"L@	c #54533B",
"M@	c #676138",
"N@	c #C7B861",
"O@	c #A7A05F",
"P@	c #AAA35A",
"Q@	c #ADA84F",
"R@	c #A8A24E",
"S@	c #B9B254",
"T@	c #020204",
"U@	c #CEC455",
"V@	c #B2AB57",
"W@	c #BBB257",
"X@	c #AFA956",
"Y@	c #B5AE64",
"Z@	c #060605",
"`@	c #060707",
" #	c #000102",
".#	c #050508",
"+#	c #0C0B06",
"@#	c #070505",
"##	c #020203",
"                    . +                                                                       ",
"              @ @ # $ % & *                                                                   ",
"            & # =           # .                                                               ",
"          - ; >               . @                                                             ",
"          + ,                   &         ' )                                                 ",
"        ! &                     . ;   ~ { ] ] ^                                               ",
"        .                       @ # @ / ( ( ( _ :     < [ } | 1 2 $ 3 4 #                     ",
"        ;                       5 @ $ 6 , 7 7 7 + 8 9 0 a b c d 2 2 e e f * g >               ",
"      . +                       h * . * % 2 2 2 $ h i j k l m n 2 2 2 2 2 2 o # .             ",
"      2 *                       & & & 2 2 2 2 $ p q r s t u v e 2 2 2 2 2 2 2 2 $ %           ",
"      2 2                     w * % $ 2 2 2 2 w x y z A B C 2 2 2 2 2 2 2 2 2 2 2 2 @         ",
"      @ &                     , # $ 2 2 2 2 . { D E F G H 2 2 2 2 2 2 2 2 2 2 2 2 2 % I       ",
"        =                       ; # $ 2 2 $ J K L M N O % 2 2 2 2 2 2 2 2 2 2 2 2 2 2 # 7     ",
"        &                         - & 2 2 > P Q R S T U 2 2 2 2 2 2 2 2 2 2 2 2 2 2 2 $ *     ",
"        > 5                         > 2 $ V W X Y Z `  ...2 2 2 2 2 2 2 2 2 2 2 2 $ +.@.#.    ",
"        $.%                         %.&.*.=.-.;.>.,.v '.).!.~.{.].^./.2 2 2 ..(._.:.<.[.}.|.  ",
"          *                         1.2.3.4.5.6.7.8.3 9.0.a.b.c.d.e.f.g.2 e h.i.j.k.l.m.n.o.  ",
"          * #                       p.q.r.s.t.u.v.w.x.y.z.A.B.C.D.E.F.G.2 H.I.J.K.L.M.N.O.P.  ",
"            *                     Q.R.S.T.U.V.W.X.Y.Z.`. +.+++@+#+$+%+&+2 e *+=+-+;+>+,+'+)+  ",
"            #                     !+~+{+]+^+/+(+_+:+x.<+[+}+|+1+2+3+4+5+2 2 6+7+8+9+0+a+b+c+  ",
"              *                   . d+e+f+g+h+i+j+2 $ k+l+m+n+o+p+q+r+s+2 2 t+u+v+w+x+y+z+A+  ",
"              *                     B+C+D+E+F+G+H+<+y.`.I+J+K+L+M+N+O+P+2 2 Q+R+S+T+U+V+W+X+  ",
"              *                     % e Y+Z+`+ @.@<++@e @@#@$@%@&@*@=@-@9.2 2 2 e ;@>@,@'@)@  ",
"              *                     . 2 !@~@{@]@^@e $ 2 /@(@_@:@<@[@}@|@H.2 2 2 2 1@2@3@4@5@  ",
"              *                     5 '.6@7@8@9@0@2 <+2 a@b@c@d@e@f@g@h@i@2 2 2 2 j@k@l@m@n@  ",
"              #                       * o@p@q@e 2 2 2 2 r@s@t@'.2 i@u@v@2 2 2 2 2 w@x@y@#     ",
"              *                       * o 2 2 2 2 <+<+2 2 2 2 2 2 2 2 <+2 2 2 2 2 2 2 $ @     ",
"            %                           @ $ 2 2 2 <+<+2 2 2 2 2 2 2 2 2 2 2 2 2 2 2 $ & +     ",
"    z@A@  B@*                           . * 2 2 2 2 2 2 2 2 2 2 2 2 2 2 2 2 2 2 2 2 * 6       ",
"  C@D@E@F@G@*                               @ $ 2 e $ 2 2 2 2 2 2 2 2 2 2 2 2 2 $ * +         ",
"H@I@J@K@L@M@                                & & $ e +@2 2 2 2 2 2 2 2 2 2 2 2 $ * I           ",
"N@O@P@Q@R@S@                                    * $ T@$ 2 2 2 2 2 2 2 2 2 '.$ * ;             ",
"U@V@W@X@Y@                                        Z@`@3 2 2 2 2 2 Z.Q+<+ #.#*                 ",
"                                                        +#@#i@<+$ ##4 =                       "};
